<svg xmlns="http://www.w3.org/2000/svg" xml:space="preserve" width="22" height="22" style="enable-background:new 0 0 22 22"><style>.st0{fill:#009651}.st1{fill:#fff}</style><path d="M22 11c0 2-.5 3.9-1.5 5.5-1.9 3.3-5.4 5.5-9.5 5.5s-7.6-2.2-9.5-5.5C.5 14.9 0 13 0 11s.5-3.9 1.5-5.5C3.4 2.2 6.9 0 11 0s7.6 2.2 9.5 5.5C21.5 7.1 22 9 22 11z" class="st0"/><path d="M16.4 7.3c-.1 0-.1 0 0 0-.2 0-.3-.1-.4-.2v-.4c.1-.1.2-.2.3-.2h.1c-.1 0-.2.1-.2.2v.4c0 .1.1.2.2.2zM16.5 7.1h-.1.1V7v.1zM16.6 6.9V7h-.1v-.1zM16.4 6.8h.1-.1v.1-.1z" class="st1"/><path d="M16.3 6.9h-.1.1V7v-.1.1zM16.3 7.1V7v.1l.1-.1-.1.1h.1zM10.2 11.1c-.2.3-.4.4-.7.4-.1 0-.2-.2-.2-.3 0-.1.1-.1.2-.1h.5c0-.1.1 0 .2 0zM11.2 10.8c-.1-.1-.2-.2 0-.3h.1c.1.1.1.2-.1.3zM12.1 10.8v.3H12c-.1-.1-.1-.2.1-.3-.1 0-.1 0 0 0z" class="st1"/><path d="M8.3 10.8c-.3.1-.5.2-.8.3h-.2c.1-.1.2-.2.4-.3.2-.1.4-.3.7-.4 0 0 .1 0 .1-.1s.1-.2.1-.3l.1-.1v.3c.2-.1.3-.2.4-.4.1-.1.1-.3 0-.4 0 .1-.1 0-.1 0-.1-.1-.2-.3-.1-.4 0-.1.1-.1.2-.1s.3.3.3.4h-.1c.1.1.1.3.2.5 0 .1 0 .2-.1.3-.1.2-.3.4-.5.6l-.1.1v.1c0 .1.1.1.2.1s.2 0 .3-.1c.2-.1.4-.3.6-.5.1-.1.1-.2.1-.4s-.1-.4-.1-.5c0-.1-.1-.2-.1-.3-.4-.2-.3-.4-.2-.4h.1l.1.1c.1.2.2.5.2.8v.1c.2-.3.5-.4.8-.5h.1c.1 0 .1 0 .1-.1V9c0-.2.2-.3.4-.3s.4.2.4.4-.1.4-.3.5c-.2.1-.3.1-.5.2h-.1H12.2c-.1.1-.2.2-.2.4-.3 0-.5.1-.8.2H11c-.1 0-.1.1-.2.1v.1c.1 0 .2.1.2.1.1.1.2.2 0 .3-.3 0-.5-.1-.8-.2-.2-.1-.3-.2-.4-.3h-.1l-.1.1c-.2.2-.4.4-.7.6-.2.1-.5 0-.7-.2.2 0 .1-.1.1-.2zm1.9-.8c-.1 0-.1 0-.1.1 0 .2.2.3.3.4h.1v-.1c0-.1 0-.2.1-.2h.1l.1-.1-.1-.1c-.1.1-.3 0-.5 0zm1.2-.8c.1 0 .1 0 0 0 0-.1 0-.1-.1-.2 0 .1 0 .1.1.2-.1 0 0 0 0 0zM16.8 10.5c-.2-.2-.3-.4-.4-.6 0 .3 0 .6-.3.7V9.4c-.1-.1-.2-.2-.3-.4v1.3c0 .2-.1.4-.4.5h-.2c-.1-.1-.2-.1-.3-.2-.1-.1-.2-.1-.2 0s-.1.2-.1.3c0 .1 0 .2-.1.3-.1.1-.2.1-.3 0-.4-.2-.5-.7-.3-.9 0 0 0-.1.1-.1v.1c0 .2 0 .3.1.5 0 0 0 .1.1.1h.2c.1-.1.1-.3.2-.4 0-.1.1-.2.2-.3.1-.1.2-.1.3 0 .1.1.1.2.2.2.1.1.2.1.2 0 .1-.2.1-.3.1-.5V8.5c-.5-.1-.6-.3-.8-.5-.1-.1-.2-.3-.1-.4v-.2c0-.1 0-.1.1 0s.2.2.4.3c.1.1.1.1 0 .1 0 0 .1.1.1.2v-.4c0-.1 0-.1.1-.2h.1c.1.1.2.3.2.4 0 0 0 .1.1.1V8h-.1V8.6c.1.1.2.2.2.3 0-.1 0-.2-.1-.4 0-.3-.1-.6-.2-.9 0-.1 0-.2.1-.3h.1c.2.3.3.5.4.7 0 0 0 .1-.1.1 0 0-.1 0 0 .1 0 .2.1.4.1.7 0 .2 0 .4.1.6v.1c.1.2.2.3.4.5.1.1.1.2.1.3v.1zM6.4 14.6c2.5.1 5.1 0 7.6.1v-.1l.1-.1s0 .1.1.1v.2H15.1c.3 0 .4.1.5.4v.1c0 .1-.1.1-.2.2-.1 0-.2 0-.3-.1h-1c-.1.1-.2.1-.2 0-.1-.1-.1-.2 0-.3H7.5c-.2 0-.5 0-.7-.1-.1-.2-.3-.3-.4-.4zm8.6.5h.1v-.2h-.9v.2h.8z" class="st1"/><path d="M7.5 8c0 .4.1.7.2 1.1h.1c.1 0 .2 0 .2.1 0 0 0 .1.1.1s.1 0 .2-.1c0 0 0-.1.1-.1-.1-.1 0-.1 0 0 .2-.1.2-.1.4-.1v.4c0 .2-.2.3-.4.2h-.2c-.2.1-.4.1-.5 0v.2c.1.6-.1 1-.7 1.3-.2.1-.5.2-.7.2-.1 0-.3 0-.4-.1-.2-.1-.3-.3-.4-.5v-.4s0-.1.1-.1.1.1.1.1v.3c0 .2.1.2.3.3.4.1 1-.1 1.3-.6.1-.2.1-.3.1-.5v-.1h-.1v.2c-.1.3-.2.6-.6.8-.2.1-.4.1-.6 0-.2-.1-.3-.3-.3-.5s0-.3.1-.5H6l.1.1v.3c0 .2.1.3.2.3h.2c.2 0 .4-.2.6-.3 0-.1.1-.2.1-.3 0 0-.1 0-.1.1h-.3c-.2 0-.2-.1-.2-.2 0-.2 0-.4.2-.5.2-.1.4-.1.5 0l.1.1s.1.1.1 0l.1-.1V9c-.3-.4-.4-.9-.4-1.3 0-.1.1-.2.2-.2l.1.1c.1.1.1.2.2.4v.1c0 .1 0 .1-.1.1 0-.2-.1-.2-.1-.2zm-.6 1.3s-.1 0-.1.1.1 0 .1.1c0 0 .1 0 0-.2.1.1 0 0 0 0z" class="st1"/><path d="M7.1 8c0 .1.1.2.1.4v.2c0 .1 0 .2-.1.2s-.2.1-.3.1c-.1 0-.1 0-.2-.1l-.1-.1c-.1 0-.1 0-.1.1v.8c0 .1 0 .2-.1.3 0 .1-.1.1-.2.1v-.9C6 9.1 6 9 5.9 9h-.2c-.1 0-.2-.1-.2-.2v-.6l-.1.1v.5c0 .1-.1.2-.2.2S5 9 5 8.9v-1V8c0 .1.1.3.1.4v.1h.2v-.1c0-.1 0-.2.1-.4 0-.1.1-.2.1-.2s.1-.1.2 0c.1 0 .1.1.1.1v.7h.1V8.3c0-.2-.1-.4-.1-.6v-.4c0-.1.1-.1.2-.1s.1.1.1.2 0 .3.1.4v.5h.1v-.1c0-.1-.1-.2-.1-.3v-.4s0-.1.1-.1c0 0 .1 0 .1.1.1.3.2.5.1.8v.1c.1 0 .1.1.2.2h.1c.1 0 .1 0 .1-.1s0-.2-.1-.2c-.1-.2-.2-.4-.2-.5 0-.1 0-.2.1-.2h.2l.1.1s.1.1.1.2V8zM13.3 10.3c-.3-.3-.5-.7-.7-1.1V10.4c0 .2-.1.3-.2.4h-.1V9.6c0-.3 0-.6-.1-.8v-.1c-.2-.3-.5-.6-.7-.9-.1-.1-.1-.3-.1-.4 0 0 0-.1.1-.1 0 0 .1 0 .1.1.1.1.2.2.4.3v-.2s0-.1.1-.1c.2.2.3.4.4.7v.1h-.1v.1c0 .2 0 .3.1.4v.1c.3.2.5.6.8 1 .1.1.1.3.1.4-.1 0-.1.1-.1.1zM12.1 8c0-.1 0-.1 0 0v-.1c0-.1 0-.1-.1 0l.1.1z" class="st1"/><path d="M11.5 8.4h-.1s0 .1-.1.1c0 .1-.2.2-.3.2s-.2 0-.3-.2c-.1-.1-.1-.1-.2 0l-.1.1c-.1.1-.2.1-.4.1s-.3-.1-.3-.3V8v.1c0 .1-.1.2-.1.3-.2.3-.4.3-.5.2-.1-.1-.1-.2-.2-.3-.1-.2-.1-.4 0-.7.1.2.2.3.2.4 0 .1 0 .2.1.3 0 .1.1.1.1 0s0-.1.1-.2c.1-.2.1-.3.2-.5l.1-.1c.1-.1.2 0 .2.1v.5c0 .2.1.2.2.3h.1c.1-.1.2-.1.2-.3 0-.2 0-.3-.1-.5v-.3s0-.1.1-.1h.1c.1.1.1.2.1.4v.5c0 .1 0 .2.1.2 0 .1.1.1.2.1s.1-.1.1-.2c0-.2-.1-.3-.2-.4-.1-.1-.1-.2 0-.4 0-.1.2-.2.3-.1.1.1.1.2.2.3 0 .1 0 .1-.1.1s-.1 0 0 .1c0 .1.1.2.1.4s.2.2.3.1h.2v.1c0 .1-.1.2-.2.2l-.1.1h-.1c.1-.1.1-.2.1-.3-.1 0 0 0 0 0zM16.7 7.3c0 .1.1.1.1.2.1.1.2.2.2.4.1.1 0 .1-.1.1s0 0 0 .1c.1 0 .1.2.1.3 0 .2.1.5.1.7V10.8c-.1.3-.3.4-.6.5h-.4s-.1-.1 0-.1.1-.1.1-.1c.1 0 .2-.1.3-.1.2-.1.4-.3.4-.6v-.3c0-.3 0-.6-.1-.9 0-.4-.1-.7-.1-1.1 0-.2 0-.3-.1-.4 0-.1 0-.2.1-.4zM13.3 7.3s0 .1.1.1c.1.1.1.3.2.4 0 .1 0 .1-.1.1v.3c.1.4.1.7.1 1.1v.8c0 .1 0 .2-.1.3-.1.2-.2.4-.4.6-.1.1-.3.2-.4.2-.1 0-.2 0-.3-.1V11c.3-.1.6-.3.8-.6.1-.1.1-.1.1-.2v-.5c0-.2 0-.4-.1-.6 0-.3-.1-.6-.1-.9 0-.2 0-.3-.1-.4.2-.2.2-.3.3-.5zM14 10.6v-.3c0-.4 0-.8-.1-1.2-.1-.4-.2-.9-.3-1.3 0-.2 0-.4.1-.6l.1-.1v.1c.1.1.2.3.2.4 0 0 .1.1.1.2v.1c-.1.1-.1.1-.1.2v.3c0 .3.1.6.1.9 0 .3 0 .6.1.8.1.2 0 .4-.2.5.1 0 .1 0 0 0 .1 0 .1 0 0 0z" class="st1"/><path d="M8.8 7.8c-.2.1-.4.3-.6.5h-.4c.2-.1.3-.2.5-.4.1 0 .1-.1.2-.2v-.1c-.1 0-.2-.1-.1-.1 0-.1.1-.2.2-.2.2 0 .2 0 .3.2v.2c-.2 0-.2 0-.1.1-.1-.1 0-.1 0 0zm-.2-.2c0-.1 0-.1-.1-.1 0 .1 0 .1.1.1zM14.9 9h-.1c-.1-.1-.2-.2-.4-.3-.1-.1 0-.2.1-.3h.2v-.1c0-.1 0-.2.1-.2s.1 0 .2.1c0 .1.1.2.1.2-.1 0-.1 0-.1.1-.1.3-.1.4-.1.5zM5 9.8s0-.1.1-.1c.1-.2.3-.3.5-.4.1 0 .1 0 .2-.1.1 0 .2 0 .3.2-.4.1-.8.3-1.1.4zM5.1 10.2v.7h.1s.1-.1.1 0c0 0 .1 0 .1.1s0 .1-.1.2c0 .1-.1.1-.2.1s-.2 0-.2-.1v-.3c0-.3 0-.5.2-.7-.1.1 0 0 0 0zM15.3 9.2c0 .1 0 .1-.1.2-.2.1-.4.2-.6.4-.1 0-.1 0-.1-.1s0-.1.1-.2c.2-.1.4-.2.5-.4h.1l.1.1c0-.1 0-.1 0 0zM15.9 10.7c.2 0 .2 0 .1.2v.1h.1v.1c-.1.1-.2.1-.4.2h-.1v-.1s.1 0 .1-.1c.1 0 .1-.1 0-.1 0-.2 0-.3.2-.3-.1 0-.1 0 0 0zM10.6 9s0-.1 0 0c0-.1 0-.1.1-.1 0 0 .1 0 .1.1v.1s0 .1-.1.1-.2.1-.3 0c-.1 0-.1-.2-.1-.3h.1c.2 0 .2 0 .2.1 0-.1 0 0 0 0zM15.3 9.9c0 .1 0 .2-.1.2h-.1V9.8c0-.1 0-.2-.1-.2 0 0 0-.1.1-.1h.1c.1.1.1.2.1.4zM13 8.3v-.1c0 .2 0 .3-.2.3h-.1c-.1 0-.2-.2-.2-.3h.1c.3 0 .3 0 .4.1-.1 0-.1 0 0 0-.1 0-.1 0 0 0zM6.7 7.4c0-.1 0-.1.1-.1s0 0 .1.1c0 .2 0 .2-.2.3-.1 0-.3 0-.3-.2v-.1h.1c.1-.1.1-.1.2 0-.1 0-.1 0 0 0zM13 7.7c0 .1-.1.2-.1.2h-.1v-.1c0-.1 0-.2-.1-.3 0 0 0-.1-.1-.1v-.2h.2c.1.3.1.4.2.5zM16.4 8.2c0-.1 0-.2-.1-.3 0 0-.1-.1-.1-.2v-.1h.1c0 .1.1.2.1.3.1.2.1.3 0 .3.1.1 0 .1 0 .1v-.1c0 .1 0 .1 0 0zM8.3 8.5c0-.1.1-.2.2-.2h.1V8.6h.2c0 .1-.1.2-.2.2-.2-.1-.3-.2-.3-.3zM5.3 7.7v-.2l-.1-.1v-.1h.1c.1 0 .2.1.2.2s0 .2-.2.2c.1.1 0 .1 0 .1.1 0 .1 0 0-.1zM10.2 7.3c0 .1-.1.2-.1.3l-.1.1s-.1 0-.1-.1v-.4h.1c.2 0 .2 0 .2.1zM8.2 10.2c0-.1 0-.2-.1-.3 0 0-.1-.1 0-.1h.2c.1 0 .2.2.1.3-.1 0-.1 0-.2.1zM9.4 7.5c0 .1 0 .1-.1.2h-.1v-.1c0-.1.1-.2.2-.3h.1v.1l-.1.1v.1c-.1-.1-.1-.1 0-.1z" class="st1"/><path d="M10.2 10h.5l.1.1-.1.1h-.1c-.1 0-.1.1-.1.2v.1h-.1c-.2-.1-.3-.2-.3-.4 0 0 0-.1.1-.1zM11.4 9.2s-.1 0-.1-.1V9c.1.1.1.1.1.2 0 0 .1 0 0 0zM15 15.1s-.1 0-.2-.1h-.5v-.2h.9v.2l-.2.1zM6.9 9.3s.1.1 0 0c.1.1.1.2 0 .2 0 0-.1 0-.1-.1 0 0 0-.1.1-.1zM12.1 8s-.1-.1-.1-.2h.1c-.1.1 0 .1 0 .2 0-.1 0-.1 0 0zM8.6 7.6c-.1 0-.1 0-.1-.1.1 0 .1 0 .1.1z" class="st0"/></svg>
