<svg xmlns="http://www.w3.org/2000/svg" xml:space="preserve" width="22" height="22.1" style="enable-background:new 0 0 22 22.1"><style>.st1{fill:#fff}.st2{fill:red}</style><path d="M22 11.1c0 .7 0 1.2-.1 1.9 0 .3-.1.7-.2.9-.3 1.4-1 2.9-2 4-.1.1-.2.3-.3.4l-.7.7c-.3.3-.6.6-.9.8-1.2.9-2.5 1.6-4.1 2-.3.1-.7.1-.9.2-1.2.2-2.4.2-3.6 0-.3 0-.7-.1-.9-.2-1.4-.3-2.9-1-4-2-.1-.1-.3-.2-.4-.3-.4-.1-.7-.3-.9-.5-.3-.3-.5-.6-.8-.9-.9-1.2-1.7-2.5-2-4.1-.1-.3-.1-.7-.2-.9 0-1.4 0-2.7.1-3.9 0-.3.1-.7.2-.9.3-1.4 1-2.9 2-4 .1-.1.2-.3.3-.4.2-.3.4-.5.7-.8.3-.3.6-.5.9-.8C5.4 1.4 6.7.7 8.3.3c.3-.1.5-.1.9-.2 1.2-.2 2.4-.2 3.6 0 .3 0 .7.1.9.2 1.4.3 2.9 1 4 2 .1.1.3.2.4.3.4.2.7.4.9.7.3.3.5.5.8.9.9 1.2 1.6 2.5 2 4.1.1.3.1.7.2.9v1.9z" style="fill:#00008c"/><path d="M19.7 17.8c-.1.1-.2.3-.3.4l-.7.7c-.3.3-.5.6-.9.8L2.3 4.3c.1-.1.2-.3.3-.4.2-.3.4-.5.7-.8.3-.3.5-.5.9-.8l11.4 11.4 4.1 4.1z" class="st1"/><path d="M19.7 4.3 4.3 19.7c-.1-.1-.3-.2-.4-.3-.3-.2-.5-.4-.8-.7-.3-.3-.6-.6-.8-.9l4-4.1L17.8 2.4c.1.1.3.2.4.3l.7.7c.2.3.5.6.8.9z" class="st1"/><path d="m9.9 9.8-.5.7-6.7-6.6c.1-.3.3-.5.5-.8L8.1 8l.2.2.8.8.2.2.6.6zM19.3 18.2l-.7.7-6.2-6.2.3-.3.3-.2.6.5.2.2.9.9 4.6 4.4zM10.4 12.7l-6.6 6.6c-.3-.1-.6-.3-.8-.5l4.9-5 .2-.2.9-.8.2-.2.6-.4.6.5zM18.9 3.4l-6.2 6.2-.3-.3-.3-.3.5-.6.2-.2.9-.9 4.4-4.4c.4 0 .6.2.8.5z" class="st2"/><path d="M22 11.1c0 .7 0 1.2-.1 1.9 0 .3-.1.7-.2.9H.3c-.1-.3-.1-.7-.2-.9-.1-1.3-.1-2.6 0-3.8 0-.3.1-.7.2-.9h21.3c.1.3.1.7.2.9.2.6.2 1.2.2 1.9z" class="st1"/><path d="M13.7.4v21.3c-.3.1-.7.1-.9.2-1.2.2-2.4.2-3.6 0-.3 0-.7-.1-.9-.2V.4c.2-.1.4-.1.8-.2 1.2-.2 2.4-.2 3.6 0 .5.1.7.1 1 .2z" class="st1"/><path d="M12.8.2v21.7c-1.2.2-2.4.2-3.6 0V.2c1.1-.1 2.4-.1 3.6 0z" class="st2"/><path d="M22 11.1c0 .7 0 1.2-.1 1.9H.1C0 11.7 0 10.4.1 9.2h21.7c.2.6.2 1.2.2 1.9z" class="st2"/></svg>
