<svg width="28" height="28" viewBox="0 0 28 28" fill="none" xmlns="http://www.w3.org/2000/svg">
<rect x="9" width="15" height="28" fill="white"/>
<path d="M24.6167 0C26.4833 0 28 1.51667 28 3.38333V24.5C28 26.3667 26.3667 28 24.5 28H18.7833V17.3833H22.4L23.1 12.8333H18.7833V10.0333C18.7833 8.75 19.3667 7.58333 21.35 7.58333H23.3333V3.73333C23.3333 3.73333 21.5833 3.38333 19.8333 3.38333C16.2167 3.38333 13.8833 5.6 13.8833 9.45V12.95H9.91667V17.5H13.8833V28H3.38333C1.51667 28 0 26.4833 0 24.6167V3.38333C0 1.51667 1.51667 0 3.38333 0H24.6167Z" fill="#3B5998"/>
</svg>
