<svg xmlns="http://www.w3.org/2000/svg" xml:space="preserve" width="22" height="22" style="enable-background:new 0 0 22 22"><style>.st0{fill:#231f20}.st2{fill:#2b4a9e}</style><path d="M11.5 0h-.9.9zM11.5 22h-1 1z" class="st0"/><path d="M22 11c0 2-.5 3.9-1.5 5.5h-19C.5 14.9 0 13 0 11s.5-3.9 1.5-5.5h19.1C21.5 7.1 22 9 22 11z" style="fill:#fff"/><path d="M20.5 5.5h-19C3.3 2.3 6.7.2 10.5 0h.9c3.9.2 7.3 2.3 9.1 5.5zM20.5 16.5c-1.8 3.2-5.2 5.3-9.1 5.5h-.9c-3.9-.2-7.2-2.3-9.1-5.5h19.1zM14.6 8.8h-2.5L11 7 9.9 8.8H7.4L8.7 11l-1.2 2.2H10l1 1.8 1.1-1.9h2.5L13.3 11l1.3-2.2zm-.6.4-.9 1.5-.9-1.5H14zm-3-1.6.7 1.3h-1.5l.8-1.3zM8 9.2h1.8l-.9 1.5L8 9.2zm0 3.6.9-1.5.9 1.5H8zm3 1.6-.7-1.3h1.5l-.8 1.3zm.9-1.6h-1.8L9 11l1.1-1.8h1.8L13 11l-1.1 1.8zm2.1 0h-1.8l.9-1.5.9 1.5z" class="st2"/></svg>
