<svg width="29" height="28" viewBox="0 0 29 28" fill="none" xmlns="http://www.w3.org/2000/svg">
<rect x="6" y="8" width="18" height="11" fill="white"/>
<path d="M14.8824 0C6.98235 0 0.882355 5.8 0.882355 13.6C0.882355 17.7 2.58235 21.2 5.28235 23.6C5.48235 23.8 5.68235 24.1 5.68235 24.4L5.78235 26.9C5.78235 27.7 6.58235 28.2 7.38235 27.9L10.1824 26.7C10.3824 26.6 10.6824 26.6 10.8824 26.6C12.1824 27 13.4824 27.1 14.9824 27.1C22.8824 27.1 28.9824 21.3 28.9824 13.5C28.9824 5.7 22.7824 0 14.8824 0ZM23.2824 10.4L19.1824 17C18.4824 18 17.0824 18.3 16.1824 17.6L12.8824 15.1C12.5824 14.9 12.1824 14.9 11.8824 15.1L7.48235 18.5C6.88235 18.9 6.08235 18.2 6.48235 17.6L10.5824 11C11.2824 10 12.6824 9.7 13.5824 10.4L16.8824 12.9C17.1824 13.1 17.5824 13.1 17.8824 12.9L22.2824 9.5C22.8824 9.1 23.6824 9.8 23.2824 10.4Z" fill="#007FFF"/>
</svg>
