<svg xmlns="http://www.w3.org/2000/svg" xml:space="preserve" width="22" height="22" style="enable-background:new 0 0 22 22"><path d="M11 21.5h-.5c-4.3-.2-8-3-9.4-7C.7 13.4.5 12.2.5 11c0-1.2.2-2.4.6-3.5 1.4-4 5.1-6.8 9.4-7h1.1c4.3.2 8 3 9.4 7 .4 1.1.6 2.3.6 3.5s-.2 2.4-.6 3.5c-1.4 4-5.1 6.8-9.4 7H11z" style="fill:#fff"/><path d="M11.1 1h.4c4.1.2 7.6 2.8 8.9 6.7.4 1.1.6 2.2.6 3.3 0 1.1-.2 2.2-.6 3.3-1.4 3.8-4.9 6.5-8.9 6.7h-1c-4.1-.2-7.6-2.8-8.9-6.7A9.6 9.6 0 0 1 1 11c0-1.1.2-2.2.6-3.3C2.9 3.8 6.4 1.2 10.5 1H11.1c-.1 0 0 0 0 0M11 0h-.6C5.9.2 2.1 3.2.6 7.3.2 8.5 0 9.7 0 11s.2 2.5.6 3.7c1.5 4.1 5.3 7.1 9.8 7.3h1.2c4.6-.2 8.4-3.2 9.8-7.3.4-1.1.6-2.4.6-3.7s-.2-2.5-.6-3.7C19.9 3.2 16.1.2 11.6 0H11z" style="fill:#eee"/><circle cx="11" cy="11" r="5.5" style="fill:#ed3342"/></svg>
