<svg width="29" height="28" viewBox="0 0 29 28" fill="none" xmlns="http://www.w3.org/2000/svg">
<rect x="4" y="2" width="22" height="25" fill="white"/>
<path d="M25.4824 0H4.48236C2.49903 0 0.982361 1.51667 0.982361 3.5V24.5C0.982361 26.4833 2.49903 28 4.48236 28H25.4824C27.4657 28 28.9824 26.4833 28.9824 24.5V3.5C28.9824 1.51667 27.4657 0 25.4824 0ZM9.03236 23.9167H4.36569V9.8H9.03236V23.9167ZM6.69903 7.81667C5.06569 7.81667 4.13236 6.76667 4.13236 5.36667C4.13236 3.96667 5.18236 2.91667 6.81569 2.91667C8.44903 2.91667 9.38236 3.96667 9.38236 5.36667C9.26569 6.76667 8.33236 7.81667 6.69903 7.81667ZM25.949 23.9167H21.2824V16.3333C21.2824 14.4667 20.5824 13.1833 18.949 13.1833C17.6657 13.1833 16.849 14 16.499 14.9333C16.3824 15.2833 16.3824 15.6333 16.3824 16.1V24.0333H11.7157C11.7157 24.0333 11.8324 11.2 11.7157 9.91667H16.3824V11.9C16.9657 10.9667 18.1324 9.56667 20.5824 9.56667C23.6157 9.56667 25.949 11.55 25.949 15.8667V23.9167Z" fill="#0E76A8"/>
</svg>
