<svg width="28" height="28" viewBox="0 0 28 28" fill="none" xmlns="http://www.w3.org/2000/svg">
<rect x="3" y="5" width="22" height="21" fill="white"/>
<path d="M17.3833 19.1333C16.6833 19.8333 15.2833 20.0667 14.2333 20.0667C13.1833 20.0667 11.7833 19.8333 11.0833 19.1333C10.9667 19.0167 10.6167 19.0167 10.5 19.1333C10.3833 19.25 10.3833 19.6 10.5 19.7167C11.55 20.7667 13.65 20.8833 14.2333 20.8833C14.8167 20.8833 16.9167 20.7667 17.9667 19.7167C18.0833 19.6 18.0833 19.25 17.9667 19.1333C17.7333 18.9 17.5 18.9 17.3833 19.1333Z" fill="#FF4500"/>
<path d="M12.3667 15.5167C12.3667 14.7 11.6667 14 10.85 14C10.0333 14 9.33333 14.7 9.33333 15.5167C9.33333 16.3333 10.0333 17.0333 10.85 17.0333C11.6667 17.15 12.3667 16.45 12.3667 15.5167Z" fill="#FF4500"/>
<path d="M17.6167 14C16.8 14 16.1 14.7 16.1 15.5167C16.1 16.3333 16.8 17.0333 17.6167 17.0333C18.4333 17.0333 19.1333 16.3333 19.1333 15.5167C19.25 14.7 18.55 14 17.6167 14Z" fill="#FF4500"/>
<path d="M24.5 0H3.5C1.51667 0 0 1.51667 0 3.5V24.5C0 26.4833 1.51667 28 3.5 28H24.5C26.4833 28 28 26.4833 28 24.5V3.5C28 1.51667 26.4833 0 24.5 0ZM22.8667 15.9833C22.8667 16.2167 22.8667 16.45 22.8667 16.6833C22.8667 20.0667 19.0167 22.75 14.1167 22.75C9.21667 22.75 5.36667 20.0667 5.36667 16.6833C5.36667 16.45 5.36667 16.2167 5.36667 15.9833C4.66667 15.6333 4.08333 14.9333 4.08333 14C4.08333 12.8333 5.01667 11.7833 6.3 11.7833C6.88333 11.7833 7.46667 12.0167 7.81667 12.3667C9.33333 11.3167 11.4333 10.6167 13.7667 10.5L14.8167 5.25C14.8167 5.13333 14.9333 5.01667 14.9333 5.01667C15.05 5.01667 15.1667 4.9 15.2833 5.01667L19.0167 5.83333C19.25 5.36667 19.8333 5.01667 20.4167 5.01667C21.2333 5.01667 21.9333 5.71667 21.9333 6.53333C21.9333 7.35 21.2333 8.05 20.4167 8.05C19.6 8.05 18.9 7.35 18.9 6.53333L15.6333 5.83333L14.5833 10.5C16.9167 10.6167 18.9 11.3167 20.4167 12.3667C20.7667 12.0167 21.35 11.7833 21.9333 11.7833C23.1 11.7833 24.15 12.7167 24.15 14C24.15 14.9333 23.6833 15.6333 22.8667 15.9833Z" fill="#FF4500"/>
</svg>
