<svg xmlns="http://www.w3.org/2000/svg" xml:space="preserve" width="22" height="22" style="enable-background:new 0 0 22 22"><style>.st0{fill:#c50c1e}.st2{fill:#c7b011}.st3{fill:#ac1518}.st4{fill:#fff}.st5{fill:#028e6e}.st6{fill:#cbcbcb}.st7{fill:#095bbd}.st8{fill:#c7b013}.st9{fill:#00aeef}.st10{fill:#c7b112}.st12{fill:#028d6e}.st13{fill:#c7b012}.st15{fill:#103bee}.st16{fill:#db4445}.st17{fill:#ec72a9}</style><path d="M20.5 5.5h-19C3.4 2.2 6.9 0 11 0s7.6 2.2 9.5 5.5zM20.5 16.5C18.6 19.8 15.1 22 11 22s-7.6-2.2-9.5-5.5h19z" class="st0"/><path d="M22 11c0 2-.5 3.9-1.5 5.5h-19C.5 14.9 0 13 0 11s.5-3.9 1.5-5.5h19.1C21.5 7.1 22 9 22 11z" style="fill:#fec315"/><g id="XMLID_14_"><path d="M11.6 9.4zM11.6 9.4zM11.6 9.3v.1h-.1v-.1h.1zM11.6 9.4h-.1zM11.6 9.4c0 .1 0 .1 0 0 0 .1 0 .1 0 0zM11.6 9.5v.1-.1zM11.6 9.6c-.1 0-.1 0 0 0v-.1c-.1.1 0 .1 0 .1zM11.6 9.5v.1-.1zM11.9 9.8zM12 9.8zM12.1 9.7c-.1.1-.1.1 0 0-.1.1-.1.1 0 0-.1.1-.1 0 0 0-.1 0-.1 0 0 0-.1 0-.1 0 0 0zM12 9.8s-.1 0 0 0zM11.8 9.7h-.1zM11.9 9.5c0 .1 0 .1 0 0l-.1.1.1-.1zM11.9 9.7c0 .1 0 .1 0 0 0 .1 0 .1 0 0 0 .1-.1.1 0 0-.1.1-.1 0 0 0zM11.9 9.7s-.1 0 0 0c-.1 0-.1 0 0 0-.1 0-.1 0 0 0-.1 0-.1 0 0 0-.1 0-.1 0 0 0-.1 0-.1 0 0 0zM11.8 9.7zM11.8 9.7c0 .1 0 .1 0 0-.1 0-.1 0 0 0-.1 0 0 0 0 0zM11.7 9.7s0 .1 0 0c0 .1 0 .1 0 0zM11.9 9.5c-.2 0-.2.1-.3.2h-.1v.1c.2-.1.3-.2.4-.3zM11.7 9.7c-.1 0 0 0 0 0s-.1 0 0 0c-.1 0-.1 0 0 0-.1 0-.1 0 0 0 0 0-.1 0 0 0zM11.6 9.6c0 .1 0 .1 0 0 0 .1 0 .1 0 0 0 .1 0 .1 0 0 0 .1 0 .1 0 0 0 .1 0 .1 0 0zM11.6 9.7zM11.6 9.7s-.1 0 0 0c-.1 0-.1 0 0 0-.1 0-.1 0 0 0-.1 0-.1 0 0 0-.1 0-.1 0 0 0zM11.5 9.7s0 .1 0 0c0 .1 0 .1 0 0z" class="st2"/><path d="M12.1 9.7c0-.1 0-.2-.1-.2h-.6c-.1 0-.1.1-.1.1v.1h.8c-.1.1-.1.1 0 0 0 .1 0 .1 0 0 0 .1 0 .1 0 0 0 .1 0 .1 0 0 0 .1 0 0 0 0zm-.2-.2c.1 0 .1.1.1.1v.1-.1c-.1 0-.1 0-.1-.1zm0 .3zm-.1-.1c0 .1 0 .1 0 0-.1 0-.1 0 0 0-.1 0 0 0 0 0zm-.1 0zm.1 0s0-.1.1-.1l-.1.1c0-.1 0 0 0 0zm0 0c0-.1 0 0 0 0zm.1 0c0 .1 0 .1 0 0 0 .1 0 .1 0 0 0 .1-.1.1 0 0-.1.1-.1 0 0 0zm-.1 0zm.1-.2c-.1.1-.1.1-.1.2 0 0-.1 0-.1-.1h.1l.1-.1zm-.2.2s0 .1 0 0c0 .1 0 .1 0 0zm-.1 0s-.1 0 0 0c-.1 0-.1 0 0 0-.1 0-.1 0 0 0-.1 0-.1 0 0 0-.1 0-.1 0 0 0zm0 0c-.1-.1 0-.1 0 0 0-.1 0-.1 0 0 0-.1 0-.1 0 0 0-.1 0-.1 0 0zm0-.2c.1.1 0 .1 0 .1v-.1zm0-.1c0 .1 0 .1 0 0 0 .1 0 .1 0 0zm.1.3c-.1 0 0 0 0 0s-.1 0 0 0c-.1 0-.1 0 0 0-.1 0-.1 0 0 0zm-.1 0zm0-.2c.1 0 .1 0 0 0h.2c-.1 0-.2.1-.2.2 0-.1.1-.1 0-.2.1 0 .1 0 0 0zm0 0v.1-.1zm0-.1zm-.1 0zm.1 0zm-.1 0zm0 .1c.1 0 .1 0 0 0v.1-.1zm-.1 0c.1 0 .1 0 0 0 .1 0 .1 0 0 0l.1.1-.2-.2.1.1zm-.2 0s.1 0 0 0c.2 0 .2.1.3.2h.1v.1c-.2-.1-.2-.2-.4-.3.1 0 .1 0 0 0zm.3.2s0 .1 0 0c0 .1 0 .1 0 0zm-.1 0s-.1 0 0 0c-.1 0-.1 0 0 0-.1 0-.1 0 0 0zm0 0c0 .1 0 .1 0 0-.1.1-.1 0 0 0zm-.1.1s0-.1 0 0c0-.1 0-.1 0 0 0-.1 0-.1 0 0 0-.1 0-.1 0 0 0-.1 0-.1 0 0zm.1-.1c0-.1 0-.1 0 0l-.1-.1s.1 0 .1.1zm0 0c0 .1 0 .1 0 0 0 .1 0 .1 0 0 0 .1 0 0 0 0zm0 0zm-.3-.1.1-.1.1.1v.1h-.2v-.1l.1.1-.1-.1c0 .1 0 .1 0 0 0 .1 0 .1 0 0zm.2.2zm-.2 0c0-.1 0-.1 0 0 0-.1 0-.1 0 0 0-.1 0-.1 0 0 0-.1 0-.1 0 0 0-.1.1 0 0 0zm.1 0c-.1 0-.1 0 0 0-.1 0-.1 0 0 0zm0 0c0-.1 0 0 0 0zm.1.1zm0 .1h.1-.1zm.3 0h-.3.3c.1-.1.2 0 .3 0h-.3zm.2 0h.1-.1zm.1 0h-.6.5c0-.1.1-.1.1 0zm0-.1zm0 0h-.6H11.9zm0 0h-.6.5c0-.1 0-.1.1 0zm-.6 0zm.1-.1zm.1 0zm.1 0zm.1 0zm.1 0zm.1 0zm.1 0c0 .1-.1.1 0 0-.1 0-.1 0 0 0H11.7h.1v-.1l.1-.1s0 .1.1.1v.1c-.1 0-.1.1 0 0zm0 0s-.1 0 0 0zm0 0zm.1 0c-.1 0-.1 0 0 0-.1 0-.1-.1 0 0-.1-.1-.1-.1 0 0 0-.1 0-.1 0 0 0-.1 0-.1 0 0 0-.1 0-.1 0 0z"/><path d="M12.1 9.6c0 .1 0 .1 0 0-.1.1-.1.1 0 0l-.1.1v-.1s0-.1.1-.1c-.1.1 0 .1 0 .1z" class="st3"/><path d="M11.9 9.9h-.6.5c0-.1 0-.1.1 0z" class="st2"/><path d="M11.9 9.9z" class="st3"/><path d="M11.9 9.8zM11.9 10h-.6.5c0-.1.1-.1.1 0zM11.9 10h-.3.3z" class="st2"/><path d="M11.8 9.9s.1 0 0 0zm0 0z"/><path d="M11.8 9.9z" class="st4"/><path d="M11.8 9.8z" class="st2"/><path d="M11.8 9.9c-.1 0-.1 0 0 0-.1 0-.1 0 0 0zm0 0z"/><path d="M11.7 9.5h.1c-.1 0-.2.1-.2.2 0-.1.1-.1.1-.2z" class="st3"/><path d="M11.8 9.9c-.1 0-.1 0 0 0z" class="st5"/><path d="M11.9 10h-.6.6z" class="st3"/><path d="M11.7 9.8z" class="st2"/><path d="M11.7 9.9zm0 0z"/><path d="M11.7 9.9z" class="st4"/><path d="M11.6 9.9c-.1 0-.1 0 0 0zm0 0c-.1 0-.1 0 0 0z"/><path d="M11.6 9.9h-.1.1z" class="st3"/><path d="M11.6 9.8z" class="st2"/><path d="M11.5 9.7c.1 0 0 0 0 0-.1 0-.1-.1-.2-.2h.2v.2z" class="st3"/><path d="M11.5 9.9zm0 0z"/><path d="M11.5 9.9z" class="st4"/><path d="M11.6 9.7c-.1.1-.1.1 0 0-.1 0-.1 0 0 0-.1 0-.1 0 0 0-.1 0-.1 0 0 0-.1-.1-.2-.2-.3-.2l.2.2h.1c-.1 0-.1 0 0 0-.1 0-.1.1 0 0-.1.1-.1.1 0 0-.1.1 0 .1 0 0zM11.5 9.8z" class="st2"/><path d="M11.5 9.9c-.1 0-.1 0 0 0-.1 0-.1 0 0 0zm-.1 0c.1 0 .1 0 0 0z"/><path d="M11.5 9.9c-.1 0-.1 0 0 0-.1 0-.1 0 0 0-.1 0-.1 0 0 0z" class="st5"/><path d="M11.9 9.9H11.3h.6zm-.6 0s.1 0 0 0c.1 0 0 0 0 0zm.2 0c-.1 0-.1 0 0 0-.1 0-.1 0 0 0zm0 0zm.1 0h-.1.1zm.1 0zm.1 0c-.1 0-.1 0 0 0-.1 0-.1 0 0 0zm0 0c.1 0 0 0 0 0zM11.4 9.7c0 .1 0 .1 0 0 0 .1 0 .1 0 0 0 .1 0 0 0 0zM11.4 9.7zM11.3 10h.3-.3zM11.4 9.7c0-.1 0-.1 0 0-.1 0-.1-.1-.2-.1.1 0 .2 0 .2.1zM11.4 9.8z" class="st2"/><path d="M11.4 9.7s-.1 0 0 0c-.1 0-.1 0 0 0-.1 0-.1-.1 0 0zM11.4 9.7c0 .1 0 .1 0 0-.1.1-.1 0 0 0z" class="st2"/><path d="M11.3 9.9s.1 0 0 0c.1 0 0 0 0 0zm0 0z"/><path d="M11.3 9.8c.1 0 0 0 0 0h-.1.1l-.1.1h-.1v-.1l.1-.1.1.1c0-.1 0-.1 0 0 0-.1 0-.1 0 0 0-.1 0-.1 0 0 0-.1 0-.1 0 0 0-.1 0-.1 0 0z" class="st3"/><path d="M11.3 9.9z" class="st4"/><path d="M11.3 9.7c0 .1 0 .1 0 0 0 .1 0 .1 0 0 0 .1 0 .1 0 0 0 .1 0 0 0 0zM12 9.8c-.1.1-.1 0 0 0h-.1v-.1l-.1-.1v.2h.2c-.1 0-.1 0 0 0 0 .1 0 .1 0 0z" class="st2"/><path d="M11.3 9.9z" class="st3"/><path d="M11.3 9.8v.1zM11.3 9.8zM11.2 9.8c0-.1 0 0 0 0zM11.2 9.8c-.1 0-.1 0 0 0-.1 0-.1 0 0 0zM11.1 9.7s.1.1 0 0c0 .1 0 .1 0 0 0 .1 0 .1 0 0 0 .1 0 0 0 0z" class="st2"/></g><g id="XMLID_13_"><path d="M12.3 14.9c-.1.1-.2.1-.2.1h-1.4v-.1H12.3zM12.3 14.7c-.1.1-.1.1-.2.1h-1.4v-.1H12.3z" class="st6"/><path d="M12.3 15c-.1.1-.1.1-.2.1h-1.4V15H12.3zM12.3 14.8c-.1.1-.1.1-.2.1h-1.4v-.1H12.3zM12.3 14.6c-.1.1-.1.1-.2.1h-1.4v-.1H12.3z" class="st7"/><path d="M11.8 14.6s-.1 0 0 0h-.4.4zm0 0s-.1 0 0 0h-.4.4zm.5 0h-1.2v.5H12.7l-.4-.5zm0 .5H10.7V15h1.4s.1 0 .2.1zm0-.1H10.7v-.1h1.4s.1 0 .2.1zm0-.1H10.7v-.1h1.4s.1 0 .2.1zm0-.1H10.7v-.1h1.4s.1 0 .2.1zm0-.1H10.7v-.1h.9c.6 0 .6 0 .7.1zm-.5-.1s-.1 0 0 0h-.4.4zm0 0s-.1 0 0 0h-.4.4z"/></g><g id="XMLID_12_"><path d="M12 10.3h-.8.8zM12 10.5h-.8.8zM11.9 10.4h-.7.7zM12.1 10v.3h-1V10zM12 14.1c0 .1 0 .1 0 0h-.8.8zM12 14.3h-.9l.1-.1h.8v.1c0-.1 0 0 0 0zM11.1 14.3h1v.2h-1z" class="st8"/><path d="M11.7 10.6h.1v3.5h-.1zM11.8 10.6v3.5h.1v-3.5zM11.2 10.6h.5v3.5h-.5z" class="st6"/><path d="M11.8 11.8v.9-.9zm-.1 0v.9-.9zm.2-1.2h-.7v3.5h.7v-3.5zm-.2 3.5h-.5V10.7h.5v3.4zm.1 0-.1-3.5h.1v3.5zm.1 0h-.1v-3.5h.1v3.5zm-.2-2.3v.8-.8zm.1 0v.9-.9zM12 10.4c-.1 0-.1 0 0 0-.1 0-.1 0 0 0h-.7.7c0 .1 0 .1 0 0 0 .1 0 0 0 0zm0 .1h-.8.8z"/><path d="M12 14.1h-.8.8v.1-.1c0 .1 0 .1 0 0zm0 .1h-.8.8c0-.1 0-.1 0 0zM11.3 14.6c.1 0 .1 0 0 0 .1 0 .1 0 0 0h.4-.4zm.1 0h.3-.3zm0 0h.3-.3zm.7-.3c-.1 0-.1-.1-.1-.1 0 .1 0 .1.1.1h-.9l.1-.1s0 .1-.1.1v.3h1l-.1-.3zm0 .3h-1v-.2h1v.2zm-.7 0h.3-.3zM12.1 10h-1v.3H12l.1-.3zm-.1.3h-.8.8zm.1 0h-1V10h1v.3z"/></g><path d="M11.2 12.4z" class="st9"/><g id="XMLID_11_"><path d="M12 11.4c-.1 0-.1 0 0 0H11.3c-.4 0-.7.1-.8.1v.4c.1 0 .4-.1.8-.1h.1c.1 0 .3 0 .4.1h.2s.1 0 .1.1H12v.4c.2 0 .3-.1.3-.2l.2-.4c-.1-.1-.2-.3-.5-.4zm-.1.9V12h.1c.1.1.2.1.2.2.1 0 0 .1-.3.1zm.4-.1c0-.1-.1-.1-.2-.2 0 0-.1 0-.1-.1h-.2c-.1 0-.2 0-.4-.1h-.1c-.2 0-.4 0-.6.1h-.1v-.4c.1 0 .1 0 .3-.1H12.4l.1.1.1.1-.3.6z"/><path d="m12.5 11.8-.2.4c0-.1-.1-.1-.2-.2 0 0-.1 0-.1-.1h-.2c-.1 0-.2 0-.4-.1h-.1c-.4 0-.7.1-.8.1v-.4s.3-.1.8-.1h.7c.2.1.4.3.5.4zM12.4 13l-.1.3s-.1-.1-.2-.1-.1-.1-.2-.1h-.1c-.1 0-.2-.1-.4-.2h-.1c-.1-.1-.3-.2-.3-.2v-.3l.2.2c.1.1.2.1.3.1 0 0 .1 0 .2.1h.2c.3 0 .5.1.5.2z" class="st3"/><path d="M12.3 13.3c0 .1 0 .1 0 0-.1.1-.2.1-.2.2-.1-.1-.1-.2-.1-.2 0-.1.1-.1.1-.1.1.1.2.1.2.1zM12.3 12.2c0 .1-.1.1-.3.2V12h.1c.1 0 .2.1.2.2z" class="st3"/><path d="M11.8 12.6c-.1 0-.1 0 0 0 0 .1 0 .1 0 0 0 .1 0 0 0 0zm.2.1c-.1 0-.1 0-.1-.1h-.1c-.1 0-.2-.1-.2-.1-.1 0-.2-.1-.3-.1V12h-.1s-.1 0-.1.1v.4c.1.1.2.2.3.2h.1c.1.1.3.1.4.2h.1c.1 0 .2.1.2.1l-.1.1c0 .1 0 .2.1.3 0-.1.1-.1.1-.2 0 0 .1 0 .1-.1l.1-.3c-.1.1-.3 0-.5-.1zm-1-.6s.1 0 0 0h.2v.3c-.1 0-.1-.1-.2-.2v-.1zm1.3 1.3s-.1.1-.1.2c-.1-.1-.1-.2-.1-.2 0-.1.1-.1.1-.1s.1 0 .1.1zm0-.1s-.1-.1-.2-.1-.1-.1-.2-.1h-.1c-.1 0-.2-.1-.4-.2h-.2c-.1-.1-.2-.1-.3-.2v-.3l.2.2c.1 0 .1.1.2.1 0 0 .1 0 .1.1 0 0 .1 0 .2.1h.2c.1 0 .1 0 .1.1h.1c.1 0 .1.1.2.1l.1.2zm-.5-.7c0 .1 0 0 0 0z"/><path d="M11.2 12.1v.3c-.1 0-.1-.1-.2-.2v-.1h.2z" class="st3"/></g><path d="M11 11.4s0 .1 0 0v.3l-.1-.2h-.1l.1.2h.1v-.3zM11.2 11.7l-.1-.2H11v.2h.2c.1 0 .1 0 0 0zM11.5 11.4h-.2.1v.2h.1v-.2zM11.7 11.6v.2-.2zm.1-.1h-.2v.2h.1v-.1.1-.1l.1-.1zm-.1.1c0-.1 0-.1 0 0zm0 0v.2-.2zM12.1 11.9v-.3H12l-.1.1.2.2zm-.2-.2v-.1.1z" class="st10"/><g id="XMLID_10_"><path d="M4.9 9.4zM4.9 9.4zM4.9 9.3v.1-.1zM4.9 9.4zM4.9 9.4s0 .1 0 0zM4.9 9.5v.1-.1zM4.9 9.6c-.1 0-.1 0 0 0v-.1.1zM4.9 9.5v.1-.1zM5.2 9.8zM5.3 9.8zM5.4 9.7c-.1.1-.1.1 0 0-.1.1-.1 0 0 0-.1 0-.1 0 0 0-.1 0-.1 0 0 0zM5.3 9.8zM5.1 9.7H5zM5.2 9.5c0 .1-.1.1-.1.1l.1-.1zM5.2 9.7c0 .1 0 .1 0 0 0 .1 0 .1 0 0 0 .1-.1.1 0 0-.1.1-.1 0 0 0zM5.2 9.7s-.1 0 0 0c-.1 0-.1 0 0 0-.1 0-.1 0 0 0-.1 0-.1 0 0 0zM5.1 9.7c0 .1 0 .1 0 0zM5.1 9.7c-.1 0-.1 0 0 0zM5 9.7s0 .1 0 0c0 .1 0 .1 0 0z" class="st2"/><path d="m5.2 9.5-.2.2h-.1v.1H5c.1-.1.1-.2.2-.3zM5 9.7c-.1 0 0 0 0 0-.1 0-.1 0 0 0-.1 0-.1 0 0 0-.1 0-.1 0 0 0-.1 0-.1 0 0 0zM4.9 9.6s0 .1 0 0c0 .1 0 .1 0 0 0 .1 0 .1 0 0 0 .1 0 .1 0 0 0 .1 0 .1 0 0 0 .1 0 0 0 0zM4.9 9.7zM4.9 9.7s-.1 0 0 0c-.1 0-.1 0 0 0-.1 0-.1 0 0 0-.1 0-.1 0 0 0-.1 0-.1 0 0 0zM4.8 9.7s0 .1 0 0c0 .1 0 .1 0 0z" class="st2"/><path d="M5.4 9.7c0-.1 0-.2-.1-.2h-.6c-.1 0-.1.1-.1.1v.1h.8c-.1.1 0 .1 0 0 0 .1 0 .1 0 0 0 .1 0 .1 0 0 0 .1 0 0 0 0zm-.1-.2c.1 0 .1.1.1.1v.1-.1c-.2 0-.2 0-.1-.1-.1 0 0 0 0 0zm-.1.3zm-.1-.1c-.1 0-.1 0 0 0zm-.1 0zm.1 0s0-.1.1-.1l-.1.1zm0 0c0-.1 0 0 0 0zm.1 0c0 .1 0 .1 0 0 0 .1 0 .1 0 0 0 .1-.1.1 0 0-.1.1-.1 0 0 0zm-.1 0c0 .1 0 .1 0 0zm.1-.2c.1 0 0 0 0 0-.1.1-.1.2-.2.2v-.1h.1l.1-.1zm-.2.2s0 .1 0 0c0 .1 0 .1 0 0zm-.2 0c.1 0 .1 0 0 0 .1 0 0 0 0 0zm.1 0c0-.1 0-.1 0 0 0-.1 0-.1 0 0 0-.1 0-.1 0 0 0-.1 0 0 0 0zm0-.2c.1.1 0 .1 0 .1v-.1zm0-.1s0 .1 0 0zm.1.3c-.1 0 0 0 0 0-.1 0-.1 0 0 0-.1 0-.1 0 0 0-.1 0-.1 0 0 0-.1 0-.1 0 0 0zm-.1 0zm.1-.2h.2l-.2.2c-.1-.1 0-.1 0-.2zm-.1 0v.2-.2zm0-.1zm0 0zm0 0zm0 0zm-.1.1c.1 0 .1 0 0 0 .1 0 .1 0 0 0v.1c.1 0 0 0 0-.1zm-.1 0c.1 0 .1 0 0 0 .1 0 .1 0 0 0l.1.1-.2-.2.1.1zm-.2 0s.1 0 0 0c.2 0 .2.1.3.2h.1v.1h-.1c-.1-.1-.1-.2-.3-.3.1 0 .1 0 0 0zm.3.2c0 .1 0 .1 0 0zm-.1 0s-.1 0 0 0c-.1 0-.1 0 0 0-.1 0-.1 0 0 0zm0 0c-.1 0-.1 0 0 0zm-.1.1c0-.1 0-.1 0 0 0-.1 0-.1 0 0 0-.1 0-.1 0 0 0-.1 0-.1 0 0zm.1-.1c0-.1 0-.1 0 0l-.1-.1s.1 0 .1.1zm0 0c0 .1 0 .1 0 0 0 .1 0 .1 0 0 0 .1 0 0 0 0zm0 0zm-.3-.1.1-.1.1.1v.1s-.1 0-.2-.1c0 .1 0 .1 0 0 0 .1 0 .1 0 0 0 .1 0 .1 0 0zm.2.2zm-.2 0c0-.1 0-.1 0 0 0-.1 0-.1 0 0 0-.1 0-.1 0 0 .1-.1.1 0 0 0zm.1 0zm0 0zm.1.1zm0 .1h.1-.1zm.3 0h-.3.6-.3zm.2 0h.1-.1zm.1 0h-.6.5c0-.1.1-.1.1 0zm0-.1zm0 0h-.6H5.2zm0 0h-.6.5c0-.1 0-.1.1 0zm-.6 0c0-.1 0-.1 0 0 0-.1 0-.1 0 0zm.1-.1zm.1 0zm.1 0zm.1 0zm.1 0zm.1 0zm.1 0c0 .1 0 .1 0 0-.1.1-.1.1 0 0-.1 0-.1 0 0 0h-.2.1v-.2s0 .1.1.1v.1c-.1 0-.1.1 0 0zm0 0zm0 0zm.1 0c-.1 0-.1 0 0 0-.1 0-.1-.1 0 0-.1-.1-.1-.1 0 0-.1-.1-.1-.1 0 0 0-.1 0-.1 0 0 0-.1 0-.1 0 0z"/><path d="M5.4 9.6c0 .1 0 .1 0 0 0 .1 0 .1 0 0-.1.1-.1.1 0 0l-.1.1v-.1s0-.1.1-.1c-.1.1 0 .1 0 .1z" class="st3"/><path d="M5.2 9.9h-.7.5c.1-.1.1-.1.2 0z" class="st2"/><path d="M5.2 9.9z" class="st3"/><path d="M5.2 9.8zM5.2 10h-.6.5c0-.1.1-.1.1 0zM5.2 10h-.3.3z" class="st2"/><path d="M5.1 9.9s.1 0 0 0c.1 0 .1 0 0 0zm0 0z"/><path d="M5.1 9.9z" class="st4"/><path d="M5.1 9.8z" class="st2"/><path d="M5.1 9.9c-.1 0-.1 0 0 0zm0 0c-.1 0-.1 0 0 0z"/><path d="M5 9.5h.1c0 .1-.1.2-.1.2-.1-.1 0-.1 0-.2z" class="st3"/><path d="M5.1 9.9z" class="st5"/><path d="M5.2 10h-.6.6z" class="st3"/><path d="M5 9.8z" class="st2"/><path d="M5 9.9zm0 0z"/><path d="M5 9.9z" class="st4"/><path d="M4.9 9.9c-.1 0-.1 0 0 0zm0 0z"/><path d="M4.9 9.9z" class="st3"/><path d="M4.9 9.8z" class="st2"/><path d="M4.9 9.7c-.1 0-.1 0 0 0-.1 0-.1-.1-.2-.2h.2c-.1.1-.1.1 0 .2z" class="st3"/><path d="M4.8 9.9zm0 0z"/><path d="M4.8 9.9z" class="st4"/><path d="M4.9 9.7c0 .1-.1.1 0 0-.1 0-.1 0 0 0-.1 0-.2-.2-.3-.2l.2.2c0 .1 0 .1.1 0h-.1.1c-.1.1-.1.1 0 0-.1.1 0 .1 0 0zM4.8 9.8z" class="st2"/><path d="M4.8 9.9c-.1 0-.1 0 0 0zm0 0c-.1 0-.1 0 0 0-.1 0-.1 0 0 0z"/><path d="M4.8 9.9c-.1 0-.1 0 0 0-.1 0-.1 0 0 0z" class="st5"/><path d="M5.2 9.9H4.6h.6zm-.6 0c.1 0 0 0 0 0zm.2 0c-.1 0-.1 0 0 0zm0 0zm.1 0h-.1.1zm.1 0zm.1 0c-.1 0-.1 0 0 0zm0 0s.1 0 0 0c.1 0 .1 0 0 0zM4.7 9.7c0 .1 0 .1 0 0 0 .1 0 .1 0 0 0 .1 0 0 0 0zM4.7 9.7zM4.6 10h.3-.3zM4.7 9.7c0-.1 0-.1 0 0 0-.1 0-.1 0 0l-.2-.2c.1.1.2.1.2.2zM4.7 9.8zM4.7 9.7s-.1 0 0 0c-.1 0-.1 0 0 0-.1 0-.1 0 0 0zM4.7 9.7c-.1 0-.1 0 0 0z" class="st2"/><path d="M4.6 9.9s.1 0 0 0zm0 0z"/><path d="M4.7 9.8s-.1 0 0 0c-.1 0-.1 0 0 0-.1 0-.1 0 0 0h-.1.1-.1v-.1l.1-.1.1.1c-.2 0-.2 0-.1.1-.1-.1-.1-.1 0 0-.1-.1-.1-.1 0 0-.1 0-.1 0 0 0-.1 0-.1 0 0 0-.1 0-.1 0 0 0-.1 0-.1 0 0 0z" class="st3"/><path d="M4.6 9.9z" class="st4"/><path d="M4.6 9.7c0 .1 0 .1 0 0 0 .1 0 .1 0 0 0 .1 0 .1 0 0zM5.3 9.8c-.1.1-.1 0 0 0h-.1v-.1l-.1-.1v.2H5 5.3c-.1 0-.1 0 0 0-.1.1-.1.1 0 0 0 .1 0 .1 0 0z" class="st2"/><path d="M4.6 9.9z" class="st3"/><path d="M4.6 9.8c0 .1 0 .1 0 0zM4.6 9.8zM4.5 9.8zM4.5 9.8zM4.4 9.7c.1 0 .1.1 0 0 0 .1 0 .1 0 0z" class="st2"/></g><g id="XMLID_9_"><path d="M4.2 14.9c.1.1.1.1.2.1h1.4v-.1H4.2zM4.2 14.7c.1.1.1.1.2.1h1.4v-.1H4.2z" class="st6"/><path d="M4.2 15c.1.1.1.1.2.1h1.4V15H4.2zM4.2 14.8c.1.1.1.1.2.1h1.4v-.1H4.2zM4.2 14.6c.1.1.1.1.2.1h1.4v-.1H4.2z" class="st7"/><path d="M5.1 14.6h-.5.5zm0 0h-.5.5zm.5 0H4.4v.5H6v-.5h-.4zm0 .5H4V15h1.5c-.1 0 0 0 .1.1zm0-.1H4v-.1h1.4s.1 0 .2.1zm0-.1H4v-.1h1.4s.1 0 .2.1zm0-.1H4v-.1h1.4s.1 0 .2.1zm0-.1H4v-.1H4.9c.6 0 .6 0 .7.1zm-.5-.1h-.5.5zm-.1 0h-.4.4c.1 0 .1 0 0 0z"/></g><g id="XMLID_8_"><path d="M4.5 10.3h.8-.8zM4.5 10.5h.8-.8zM4.6 10.4h.7-.7zM4.4 10v.3h1V10zM4.5 14.1c0 .1 0 .1 0 0h.8-.8zM4.4 14.3h.9l-.1-.1h-.8v.1c.1-.1.1 0 0 0zM4.4 14.3h1v.2h-1z" class="st8"/><path d="M4.7 10.6h.1v3.5h-.1zM4.7 10.6v3.5h-.2v-3.5z" class="st6"/><path d="M4.7 10.6h.5v3.5h-.5z" class="st6"/><path d="M4.7 11.8v.8-.8zm0 0v.8-.8zm.5-1.2h-.7v3.5h.7v-3.5zm-.5 3.5h-.2v-3.5h.1v3.5zm0 0-.1-3.5h.1v3.5zm.5-1.7v1.7h-.5v-3.5h.5v1.8zm-.5-.6v.8-.8zm0 0v.8-.8zM5.3 10.4c-.1 0-.1 0 0 0-.1 0-.1 0 0 0h-.7.7c0 .1 0 .1 0 0 0 .1 0 0 0 0zm0 .1h-.8.8z"/><path d="M5.3 14.1h-.8.8v.1-.1c0 .1 0 .1 0 0 0 .1 0 .1 0 0zm0 .1h-.8.8c0-.1 0-.1 0 0zM4.7 14.6h.4-.4zm0 0H5h-.3zm0 0H5h-.3zm.7-.3c-.1 0-.1-.1-.1-.1s0 .1.1.1h-.9l.1-.1s0 .1-.1.1v.3h1l-.1-.3zm0 .3h-1v-.2h1v.2zm-.7 0H5h-.3zM5.4 10h-1v.3H5.3l.1-.3zm-.1.3h-.8.8zm.1 0h-1V10h1v.3z"/></g><path d="M5.2 12.4z" class="st9"/><g id="XMLID_7_"><path d="M4.7 11.8zm1.4-.3c-.1-.1-.4-.1-.8-.1h-.7c-.4.1-.6.3-.6.4l.2.4c0 .1.1.1.3.2V12h-.1s.1 0 .1-.1h.2c.1 0 .2 0 .4-.1h.1c.3 0 .7.1.8.1l.1-.4zm-1.6.5v.3c-.2 0-.3-.1-.3-.2s.1-.1.2-.2c0 .1.1.1.1.1zm1.5-.1h-.1c-.1 0-.4-.1-.6-.1h-.1c-.1 0-.3 0-.4.1h-.2c-.1 0-.1 0-.1.1-.1.1-.2.1-.2.2l-.3-.4s0-.1.1-.1c0 0 .1-.1.2-.1H6v.3z"/><path d="m4 11.8.2.4c0-.1.1-.1.2-.2 0 0 .1 0 .1-.1h.2c.1 0 .2 0 .4-.1h.1c.4 0 .7.1.8.1v-.4s-.3-.1-.8-.1h-.7c-.3.1-.4.3-.5.4zM4.1 13l.1.3.1-.1c.1 0 .1-.1.2-.1h.1c.1 0 .2-.1.4-.2h.1c.1-.1.2-.2.3-.2v-.3l-.2.2c-.1.1-.2.1-.3.1 0 0-.1 0-.2.1h-.2c-.2 0-.4.1-.4.2z" class="st3"/><path d="M4.2 13.3c0 .1 0 .1 0 0 .1.1.2.1.2.2.1-.1.1-.2.1-.2 0-.1-.1-.1-.1-.1l-.2.1zM4.2 12.2c0 .1.1.1.3.2V12h-.1c-.1 0-.2.1-.2.2z" class="st3"/><path d="M4.7 12.6c0 .1 0 .1 0 0zm.8-.5c0-.1-.1-.1-.1-.1h-.1v.4c-.1 0-.2.1-.3.1 0 0-.1 0-.2.1h-.2c-.3.1-.4.2-.4.3l.1.3s0 .1.1.1.1.1.1.2c.1-.1.1-.2.1-.3 0-.1-.1-.1-.1-.1.1 0 .1-.1.2-.1h.1c.1 0 .2-.1.4-.2h.1c.1-.1.3-.2.3-.2l-.1-.5zm-.2 0h.2v.1l-.2.2v-.3zm-.9 1.3c0 .1 0 .1-.1.2 0-.1-.1-.1-.1-.2 0 0-.1 0-.1-.1 0 0 .1-.1.2-.1 0 0 .1.1.1.2zm.9-.7c0 .1 0 .1 0 0-.1.1-.1.1-.2.1-.1.1-.2.2-.3.2h-.1c-.1 0-.2.1-.2.1-.1 0-.1.1-.1.1l-.3-.2v-.1l.1-.1h.1s.1 0 .1-.1h.2c.1 0 .2-.1.2-.1.1 0 .2-.1.3-.1.1 0 .1-.1.2-.2v.3c.2 0 .1.1 0 .1zm-.6-.1z"/><path d="M5.3 12.1v.3c.1 0 .1-.1.2-.2v-.1h-.2z" class="st3"/></g><path d="M4.8 11.6c-.1-.1-.1-.1 0 0l-.2-.1h-.1l.1.2h.1v-.1h.1zm-.1 0-.1-.1.1.1c-.1-.1-.1-.1 0 0zM5 11.7h-.1v-.2h-.1v.2H5zM5.3 11.4v.2l-.1-.2h-.1l.1.3h.1V11.4zM5.5 11.5c-.1 0-.1 0 0 0-.1 0-.1 0 0 0 0 0 .1 0 0 0l-.1-.1s-.1 0-.1.1v.1s0 .1.1.1h.1-.2.2s.1 0 .1-.1l-.1-.1c.1.1.1 0 0 0z" class="st10"/><g id="XMLID_6_"><path d="M10.5 8.7c0 .1 0 .1 0 0 0 .1-.1.1 0 0-.1 0 0 0 0 0zM10.6 8.6c0 .1 0 .1 0 0-.1.1-.1.1 0 0-.1 0-.1 0 0 0zM10.6 8.5s0 .1 0 0c0 .1 0 0 0 0zM10.6 8.3c0 .1 0 .1 0 0 0 .1 0 .1 0 0zM10.6 8.2s0 .1 0 0c-.1.1-.1 0 0 0-.1 0-.1 0 0 0zM10.5 8.1zM10.4 7.9s0 .1 0 0c0 .1 0 .1 0 0 0 .1 0 .1 0 0 0 .1 0 0 0 0zM10.3 7.9s-.1 0 0 0c-.1 0 0 0 0 0zM10.1 7.8c.1 0 .1 0 0 0 .1 0 .1.1 0 0 0 .1 0 .1 0 0zM10 7.7c0 .1 0 .1 0 0 0 .1 0 .1 0 0 0 .1 0 0 0 0zM9.8 7.7c.1 0 .1 0 0 0 .1.1.1.1 0 0 0 .1 0 .1 0 0zM9.7 7.7c0 .1 0 .1 0 0 0 .1 0 .1 0 0zM9.5 7.7s.1 0 0 0c0 .1 0 .1 0 0zM9.4 8.4s-.1 0 0 0c-.1 0 0 0 0 0zM9.5 8.2s0 .1 0 0c0 .1 0 .1 0 0-.1.1-.1.1 0 0-.1.1-.1 0 0 0zM9.5 8.1c0 .1 0 .1 0 0 0 .1 0 .1 0 0zM9.5 8zM9.5 7.8c0 .1 0 .1 0 0 0 .1-.1.1 0 0-.1 0-.1 0 0 0zM9.4 7.7c0 .1 0 .1 0 0zM9.3 7.6c0 .1 0 .1 0 0 0 .1-.1.1 0 0-.1 0 0 0 0 0zM9.1 7.5s.1.1 0 0c.1.1.1.1 0 0 0 .1 0 .1 0 0 0 .1 0 0 0 0zM9 7.5c0 .1 0 .1 0 0 0 .1 0 .1 0 0zM8.9 7.5c-.1 0-.1 0 0 0-.1 0-.1 0 0 0zM8.7 7.5zM8.5 7.5c.1 0 .1 0 0 0 .1.1.1.1 0 0 0 .1 0 .1 0 0zM8.4 7.5s0 .1 0 0c0 .1 0 .1 0 0 0 .1 0 .1 0 0 0 .1 0 0 0 0zM8.3 8.3s0 .1 0 0c0 0-.1 0 0 0h-.1.1zM8.2 8.1c.1 0 .1 0 0 0 .1.1 0 .1 0 .1v-.1zM8.2 8c.1 0 .1 0 0 0 .1.1 0 .1 0 .1V8zM8.2 7.8c.1 0 .1 0 0 0 .1.1.1.1 0 0 0 .1 0 .1 0 0zM8.2 7.7s.1 0 0 0c.1 0 .1.1 0 0 0 .1 0 0 0 0zM8.1 7.5s0 .1 0 0c0 .1 0 .1 0 0-.1.1-.1.1 0 0-.1.1-.1 0 0 0zM7.9 7.5s.1 0 0 0c.1.1.1.1 0 0 0 .1 0 .1 0 0zM7.8 7.5s-.1 0 0 0c-.1 0 0 0 0 0zM7.6 7.5s.1 0 0 0c.1 0 0 0 0 0zM7.5 7.5c0 .1 0 .1 0 0 0 .1-.1.1 0 0-.1 0 0 0 0 0zM7.3 7.5c.1 0 .1.1 0 0 .1.1.1.1 0 0 0 .1 0 .1 0 0 0 .1 0 0 0 0zM7.2 7.6c0 .1 0 .1 0 0 0 .1 0 .1 0 0zM7.1 8.4zM7 8.2s.1.1 0 0c.1.1 0 .1 0 0 0 .1 0 .1 0 0zM7 8.1c0 .1 0 .1 0 0 0 .1-.1.1 0 0-.1 0 0 0 0 0z" class="st4"/><path d="M7.1 7.8z" class="st2"/><path d="M7 8s-.1 0 0 0c-.1 0 0 0 0 0zM7 7.8s.1 0 0 0c.1.1 0 .1 0 0 0 .1 0 .1 0 0zM7.1 7.7s0 .1 0 0c0 .1-.1.1 0 0zM6.9 7.7c.1 0 .1 0 0 0 .1 0 .1.1 0 0 0 .1 0 .1 0 0zM6.8 7.7c0 .1 0 .1 0 0 0 .1 0 .1 0 0zM6.6 7.7c.1 0 .1 0 0 0 .1.1.1.1 0 0 0 .1 0 .1 0 0zM6.5 7.7c0 .1 0 .1 0 0 0 .1-.1.1 0 0-.1.1 0 0 0 0zM6.3 7.8c.1 0 .1 0 0 0 .1 0 .1.1 0 0 0 .1 0 .1 0 0zM6.2 7.9zM6.1 7.9s0 .1 0 0c0 .1 0 .1 0 0 0 .1-.1.1 0 0zM6 8.1s-.1 0 0 0c-.1 0 0 0 0 0zM5.9 8.2s.1 0 0 0c.1 0 0 .1 0 0 0 .1 0 0 0 0z" class="st4"/><path d="M10.6 8.3s-.1 0 0 0c-.1.1 0 .1 0 .1s.1 0 0-.1c.1 0 0 0 0 0zm0 .1c0-.1 0-.1 0 0 0-.1 0-.1 0 0zM10.6 8.5s-.1 0 0 0c-.1.1 0 .1 0 .1s.1-.1 0-.1c.1 0 0 0 0 0zm0 0zM10.6 8.2c-.1 0-.1 0 0 0-.1.1 0 .1 0 .1v-.1zm0 .1c-.1 0-.1-.1 0 0-.1-.1-.1-.1 0 0 0-.1 0-.1 0 0 0-.1 0 0 0 0zM10.6 8.6c-.1 0-.1 0 0 0-.1.1 0 .1 0 .1v-.1zm0 .1c-.1 0-.1 0 0 0-.1-.1-.1-.1 0 0zM10.5 8s-.1.1 0 0c-.1.1 0 .1 0 .1s.1 0 0-.1c0 .1 0 0 0 0zm0 .1zM10.5 8.7s-.1 0 0 0c-.1.1 0 .1 0 .1v-.1zm0 .1c0-.1 0-.1 0 0 0-.1 0-.1 0 0z"/><path d="M10.5 8.3v.2c0 .1-.1.2-.1.2l-.1-.1c.1-.1.1-.3.1-.4.1 0 .1.1.1.1zM10.5 8.9h-.2s-.1 0-.1.1v-.2h.1c.1 0 .1-.1.1 0l.1.1z" class="st2"/><path d="M10.4 7.9s-.1.1 0 0c-.1.1 0 .1 0 .1v-.1c0 .1 0 0 0 0zm0 .1s0-.1 0 0c0-.1 0 0 0 0z"/><path d="m10.4 8.7-.2-.1s.1-.1.1-.2 0-.2-.1-.3c0-.1-.1-.2-.3-.2h-.4.4c.2 0 .3.1.4.2v.1c.1.1 0 .3-.1.4l.2.1z" class="st2"/><path d="m10.2 8.6.1.2h-.1s-.1 0-.1.1V9s-.1-.1-.2-.1V9h-.2s0 .1.1.1h.2l-.1.1h-.1s-.1 0-.1-.1v-.2s-.1 0-.1.1v.1s-.1.1-.2.1-.1-.1-.1-.1V9h.1v-.1h.2l-.1-.1v-.1h-.2s0-.1.1-.1v-.1s.1 0 .1-.1c0 0 .1 0 .1-.1h.2c.2 0 .3.1.4.1-.1 0 0 0 0 .2.1 0 0 0 0 0z" class="st3"/><path d="M10.3 7.8c-.1 0-.1.1 0 0-.1.1 0 .1 0 .1v-.1c0 .1 0 0 0 0zm0 .1s-.1 0 0 0c-.1 0 0 0 0 0z"/><path d="M10.2 9c0 .1 0 .1 0 0l-.1.1.1-.1c-.1.1-.1 0 0 0z" class="st3"/><path d="M10.1 7.8c-.1.1 0 .1 0 .1s.1 0 0-.1c.1 0 .1 0 0 0zm0 .1s0-.1 0 0c0-.1 0-.1 0 0 .1-.1.1-.1 0 0 .1-.1.1 0 0 0z"/><path d="M10.1 9c0 .1 0 .1 0 0-.1.1-.2.1-.3.1v-.2h.2c.1 0 .1.1.1.1z" class="st2"/><path d="M10.1 9.2s-.1 0 0 0c-.1.1-.3.2-.4.1H9.4c-.1 0-.2-.1-.2-.1s-.1 0-.1.1H9c-.1 0-.2-.1-.2-.1s-.1 0-.1.1h-.1c-.3-.1-.3-.3-.3-.3s-.1.1-.2.1H8s-.1 0-.1-.1c0 0-.1.1-.2.1h-.1s-.1 0-.1-.1c0 0-.1.1-.2.1H7c-.1 0-.2 0-.3-.1l-.1-.1.1.1h.1s.1 0 .1-.1c0 0 .1.1.2.1h.1c.1 0 .1-.1.2-.2v-.1h.1v.1s.1.1.2.1h.1c.1 0 .1-.1.2-.2 0 .1.1.1.2.1h.1c-.1.2-.1.2-.1 0 .1.2.1.2.2.3h.1c.1 0 .1 0 .2-.1 0 .1.1.1.2.2H9c.1 0 .1 0 .2-.1s0-.1 0-.1h.1v.1c0 .1.1.1.1.1h.1c.1 0 .1-.1.2-.1 0 .1.1.1.1.1H10.1c-.1-.1 0-.1 0 0 0-.1 0-.1 0 0z" class="st2"/><path d="M10 7.7s-.1 0 0 0c-.1.1 0 .1 0 .1s.1 0 0-.1c.1 0 0 0 0 0zm0 .1s0-.1 0 0c0-.1 0 0 0 0zM9.8 7.7c-.1.1 0 .1 0 .1s.1 0 0-.1c.1 0 .1 0 0 0zm0 .1c0-.1 0-.1 0 0 .1-.1.1-.1 0 0 .1 0 .1 0 0 0z"/><path d="M9.8 9.4h-.1c-.1 0-.2 0-.4-.1H8.2c-.6 0-1.2 0-1.4.1h-.1l.1-.1h2.5c.3 0 .4 0 .5.1-.1-.1-.1-.1 0 0-.1-.1-.1-.1 0 0z" class="st2"/><path d="M9.7 7.7s-.1 0 0 0c-.1.1 0 .1 0 .1v-.1zm0 .1c0-.1 0-.1 0 0 0-.1 0-.1 0 0z"/><path d="M9.7 9s0 .1 0 0c0 .1 0 .1 0 0 0 .1 0 .1 0 0-.1.1-.1.1 0 0-.1 0 0 0 0 0z" class="st4"/><path d="M9.7 9.5c0-.1 0-.1 0 0-.1-.1-.3-.1-.4-.1-.3-.1-.7-.1-1.1-.1-.6 0-1.2 0-1.4.1h-.1l.1.1H7l-.1.1v.1H7c.1 0 .2 0 .3-.1.3 0 .6-.1 1-.1s.7 0 1 .1c.1 0 .3 0 .4.1-.1 0-.1-.1 0-.2h-.2.2zm-2.6.1s0-.1 0 0c-.1-.1 0-.1 0-.1.1-.1.1 0 0 .1.1-.1.1 0 0 0zm.6-.1c-.1 0-.1 0 0 0h-.3s-.1 0-.1-.1l.4.1c-.1-.1-.1-.1 0 0 0-.1 0-.1 0 0 0-.1 0 0 0 0zm.2 0c-.1 0-.1-.1 0 0-.1-.1 0-.1 0-.1v.1c0-.1 0 0 0 0zm.5 0h-.3s-.1 0-.1-.1 0-.1.1-.1h.3v.2c0-.1 0 0 0 0zm.2 0s0-.1 0 0c-.1-.1 0-.1 0-.1.1 0 .1 0 0 .1.1-.1.1 0 0 0zm.5 0h-.3.2c.1-.1.1-.1.1 0zm.2.1s0-.1 0 0c-.1-.1 0-.1 0-.1.1-.1.1 0 0 .1.1-.1.1 0 0 0z" class="st2"/><path d="M9.7 9.5v.1h-.1l-.1-.1zM9.6 9.3c.1 0 .1 0 0 0h-.1.1z" class="st3"/><path d="M9.6 9.7s0 .1 0 0h-.1c-.1 0-.2 0-.4-.1h-.9c-.5 0-1 0-1.3.1h-.1l.1-.1c.1 0 .2 0 .3-.1.3 0 .6-.1 1-.1s.7 0 1 .1l.4.2zM9.5 8.8l.1.1h-.2V9l-.1-.1v-.1h.2c0-.1 0-.1 0 0z" class="st2"/><path d="M9.5 7.7c-.1.1 0 .1 0 .1s.1 0 0-.1c.1 0 .1 0 0 0zm0 .1c0-.1 0-.1 0 0 0-.1.1-.1 0 0z"/><path d="M9.6 9.8s-.1 0 0 0c-.1 0-.2.1-.3.1-.3 0-.6.1-1 .1s-.7 0-1-.1c-.2 0-.3-.1-.3-.1h.1c.2.1.7.1 1.3.1.3 0 .6 0 .9-.1h.3c-.1 0 0 0 0 0zM9.4 8.2c0-.1.1-.1 0 0v-.1L9.3 8s0 .1.1.1v.1c0 .1 0 .2-.1.3v.1s0-.1.1-.1v-.3c.1 0 .1 0 0 0 .1 0 0 0 0 0z" class="st2"/><path d="M9.4 8.6c0 .1 0 .1-.1.2h-.2V8.5h.1s0-.1.1-.1c0 .1.1.1.1.2z" class="st2"/><path d="M9.4 7.7s-.1 0 0 0c-.1.1 0 .1 0 .1v-.1zm0 .1c0-.1 0-.1 0 0 0-.1 0-.1 0 0z"/><path d="M9.4 7.9c.1.2 0 .3-.1.5v.1l-.1-.2h.1s0-.1.1-.1v-.3c-.1 0-.1 0 0 0-.2-.2-.4-.2-.6-.2-.1 0-.3 0-.3.1.1-.1.3-.1.3-.1h.3c.1 0 .2.1.2.1l.1.1c-.1-.1 0 0 0 0z" class="st2"/><path d="M9.3 9.4s0 .1 0 0c-.1.1 0 .1 0 .1.1.1.1 0 0-.1.1.1.1 0 0 0zm0 .1c.1 0 .1 0 0 0 .1 0 .1 0 0 0z"/><path d="M9.3 9.5c.1 0 .1 0 0 0 .1 0 .1 0 0 0z" class="st4"/><path d="M9.3 7.6s-.1 0 0 0c-.1.1 0 .1 0 .1v-.1zm0 .1s-.1 0 0 0c-.1-.1 0-.1 0 0 0-.1 0-.1 0 0z"/><path d="M9.3 8.8c0 .1 0 .1 0 0 0 .1 0 .1 0 0 0 .1-.1.1 0 0l-.1.1v-.1h.1z" class="st3"/><path d="m9.2 8.3.1.1v.1h-.1v.2L9 8.6v.1h-.1s0 .1.1.1v.1h.2V9s-.1.1-.2.1c-.2 0-.2 0-.2-.1v-.2.2c-.2.1-.2.1-.3.1h-.1c0-.1-.1-.1-.1-.3.1.1.2.1.2.1v-.1c.1 0 .1 0 .2-.1h-.1v-.1c-.1 0-.2 0-.2.1v-.2h-.1l.1-.1.1-.1v-.2h.3c.1 0 .2 0 .3.1 0 0 .1 0 .1.1.1 0 .1 0 0 0 .1 0 .1 0 0 0zM9.2 9.1l.1.1H9c.1 0 .1 0 .2-.1-.1.1 0 .1 0 0z" class="st3"/><path d="M9.1 7.5c-.1.1 0 .1 0 .1s.1 0 0-.1c.1 0 .1 0 0 0zm0 .1s0-.1 0 0c.1-.1.1-.1 0 0 .1 0 .1 0 0 0z"/><path d="M9.1 9.7c.1 0 .3 0 .3.1-.1 0-.2.1-.4.1s-.6.1-.9.1c-.5 0-1-.1-1.2-.1.2-.1.7-.1 1.2-.1.5-.1.8-.1 1-.1z" class="st3"/><path d="M9.2 8.8c-.1 0-.1 0 0 0v.1H9c-.1 0-.1-.1-.1-.1H9v-.1l.2.1c-.1-.1-.1-.1 0 0-.1-.1 0-.1 0 0z" class="st2"/><path d="M9.1 9.4h-.3.3c0 .1 0 .1 0 0 0 .1 0 .1 0 0zm0 .1h-.3.3c0-.1 0-.1 0 0z"/><path d="M9.1 9.4c0 .1 0 .1 0 0 0 .1 0 .1 0 0h-.3.3z" class="st5"/><path d="M9 7.5s-.1 0 0 0c-.1.1 0 .1 0 .1s.1 0 0-.1c.1 0 0 0 0 0zm0 .1c0-.1 0-.1 0 0 0-.1 0-.1 0 0zM8.9 7.5c-.1 0-.1 0 0 0-.1.1 0 .1 0 .1v-.1zm0 0c-.1 0-.1 0 0 0-.1 0-.1 0 0 0z"/><path d="M8.8 9.2h-.3s.1 0 .1-.1c.1 0 .2.1.2.1z" class="st3"/><path d="M8.8 8.9s-.1 0 0 0c-.1 0-.1 0 0 0-.1 0-.1 0 0 0-.1 0-.1-.1 0 0 0-.1 0-.1 0 0z" class="st4"/><path d="M8.7 7.5s-.1 0 0 0c-.1.1 0 .1 0 .1s.1-.1 0-.1c.1 0 0 0 0 0zm0 0z"/><path d="M8.7 8.7c0 .1 0 .1 0 0-.1 0-.1.1-.2.1 0 0-.2 0-.2-.1v-.2c.1 0 .1-.1.2-.1v.1c0 .2.1.2.2.2z" class="st2"/><path d="M8.6 9.4c-.1.1 0 .1 0 .1.1 0 .1-.1 0-.1.1 0 .1 0 0 0zm0 .1s0-.1 0 0c0-.1 0-.1 0 0 .1-.1.1-.1 0 0 .1-.1.1 0 0 0z"/><path d="M8.6 9.4s.1 0 0 0c.1 0 0 .1 0 0 0 .1 0 0 0 0z" class="st4"/><path d="M8.5 7.5c-.1.1 0 .1 0 .1s.1 0 0-.1c.1 0 .1 0 0 0zm0 .1c.1-.1.1-.1 0 0 .1 0 .1 0 0 0zM8.4 9.4h-.3s-.1 0-.1.1 0 .1.1.1h.3v-.2zm0 0h-.3.3z"/><path d="M8.4 7.9c0 .1 0 .2.1.4l-.1.1-.1.1.1-.1v-.5c-.1 0-.1-.1-.1-.1 0-.1-.1-.1-.1-.1s-.1 0-.1.1V8.5L8 8.4v-.1c0-.1 0-.2.1-.4v-.1c0-.1.1-.1.2-.1 0 0 .1 0 .2.1-.1 0-.1.1-.1.1zM8.4 7.4h-.3v-.1h.1v-.2h-.1V7h.1v-.1h.1V7h.1v.1h-.1v.3h.1z" class="st2"/><path d="M8.4 9.4h-.3.3z" class="st3"/><path d="M8.4 7.3h-.1v-.1c.1 0 .1.1.1.1z" class="st7"/><path d="M8.4 8.4c0 .1 0 .1 0 0v.2h-.2v-.2h.1v-.2.1c0 .1 0 .1.1.1-.1.1-.1.1 0 0-.1.1 0 .1 0 0z" class="st2"/><path d="M8.1 7.5h.3c0 .1-.1.1-.2.1 0-.1-.1-.1-.1-.1z" class="st7"/><path d="M8.4 8.3v-.5c0-.1-.1-.1-.1-.1s-.1 0-.1.1v.5-.2s0-.1.1-.1.1 0 .1.1v.1c-.1.1-.1.1 0 .1-.1 0-.1 0 0 0-.1 0 0 0 0 0zm-.2-.6c.1 0 .1 0 0 0 .1.1.1.1 0 0 0 .1 0 0 0 0zm0 .1c.1 0 .1 0 0 0 .1.1 0 .1 0 .1v-.1zm0 .3c0-.1 0-.1 0 0-.1-.1 0-.1 0-.1s.1 0 0 .1c.1-.1.1 0 0 0z" class="st2"/><path d="M8.3 8.7c0 .1 0 .1 0 0 0 .1 0 .1 0 0l-.1.1v-.1h.1zM8.2 9.1s.1.1.2.1H8l.2-.1z" class="st3"/><path d="M8.2 7.9s0 .1 0 0v.2h.1l-.1-.2c.1.1.1 0 0 0zm0 .2s0-.1 0 0c0-.1 0-.1 0 0 .1-.1.1-.1 0 0 .1-.1.1 0 0 0zM8.2 7.8c-.1.1 0 .1 0 .1s.1 0 0-.1c.1 0 .1 0 0 0zm0 .1c0-.1 0-.1 0 0 .1-.1.1-.1 0 0 .1 0 .1 0 0 0zM8.2 7.7c0 .1 0 .1 0 0 .1.1.1 0 0 0 .1 0 .1 0 0 0zm0 .1s0-.1 0 0c0-.1 0-.1 0 0 0-.1.1-.1 0 0 .1-.1.1 0 0 0z"/><path d="M8.2 7.2v.1h-.1s0-.1.1-.1z" class="st7"/><path d="M8.2 8.8c0 .2 0 .2-.1.2H8c-.1 0-.2 0-.2-.1v-.2c0-.1 0 0 0 0v.1c0 .1-.1.1-.1.2-.1 0-.2 0-.2-.1v-.1h.2v-.1c.1 0 .1-.1.1-.1h-.1v-.1l-.1.1h-.1v-.2h-.1v-.1l.1-.1h-.1c.1 0 .2 0 .2-.1.1 0 .2-.1.3-.1h.3v.2l.1.1.1.1h-.1v.2h-.4s-.1 0-.2.1c.1 0 .1.1.2.1v.1s.2 0 .3-.1z" class="st3"/><path d="M8.1 8.7v.1c0 .1-.1.1-.2.1v-.1c-.1 0-.1 0-.2-.1.1-.1.2-.1.2-.1v-.1l.2.2zM8.1 7.7c0 .1 0 .1 0 0h-.3c-.2 0-.5.1-.6.2v.2s0 .1.1.1h.1l-.2.3v-.1c-.1-.2-.2-.3-.1-.5v-.1c0-.1.1-.1.1-.1.1-.1.2-.1.3-.1h.2c.1 0 .3 0 .4.1z" class="st2"/><path d="M7.9 7.5c-.1.1 0 .1 0 .1s.1 0 0-.1c.1 0 .1 0 0 0zm0 .1c0-.1 0-.1 0 0 0-.1.1-.1 0 0 .1 0 0 0 0 0zM7.9 9.4c-.1 0-.1 0 0 0-.1.1 0 .1 0 .1v-.1zm0 .1s-.1-.1 0 0c-.1-.1 0-.1 0 0 0-.1 0-.1 0 0 0-.1 0 0 0 0z"/><path d="M7.9 9.4s0 .1 0 0c0 .1-.1 0 0 0-.1 0 0 0 0 0z" class="st4"/><path d="M7.8 9.2c.1 0 .1 0 0 0 .1 0 0 0 0 0h-.2c.1 0 .2-.1.2 0 0-.1 0 0 0 0z" class="st3"/><path d="M7.8 7.5c-.1 0-.1 0 0 0-.1.1 0 .1 0 .1v-.1zm0 0s-.1 0 0 0c-.1 0 0 0 0 0z"/><path d="M7.8 8.9c0 .1 0 .1 0 0-.1 0-.1 0 0 0-.1 0-.1 0 0 0-.1-.1-.1-.1 0 0-.1-.1-.1-.1 0 0 0-.1 0 0 0 0z" class="st4"/><path d="M7.7 9.4s-.1 0 0 0h-.3s0 .1.1.1l.2-.1c-.1.1-.1.1 0 0 0 .1 0 0 0 0zm-.1.1h-.3.3c0-.1 0-.1 0 0zM7.6 7.5c-.1.1 0 .1 0 .1.1 0 .1-.1 0-.1.1 0 .1 0 0 0zm0 0s.1 0 0 0c.1 0 0 0 0 0z"/><path d="M7.7 9.4c-.1.1-.1.1 0 0l-.3.1.3-.1c-.1 0-.1 0 0 0z" class="st5"/><path d="M7.6 8.8s0 .1-.1.1h-.2v-.1c0-.1 0 0 0 0v-.1h.2v.1c0-.1.1-.1.1 0z" class="st2"/><path d="M7.5 7.5c-.1 0-.1 0 0 0-.1.1 0 .1 0 .1v-.1zm0 .1s-.1 0 0 0c-.1-.1 0-.1 0 0 0-.1 0-.1 0 0z"/><path d="M7.4 9.2H7.1c.1 0 .1-.1.1-.1.1.1.2.1.2.1z" class="st3"/><path d="M7.3 7.5c-.1.1 0 .1 0 .1.1 0 .1 0 0-.1.1 0 .1 0 0 0zm0 .1s0-.1 0 0c.1-.1.1-.1 0 0 .1 0 .1 0 0 0z"/><path d="M7.3 8.6v.1h-.2L7 8.6h.1v-.1c.1 0 .2.1.2.1z" class="st2"/><path d="M7.3 8.8c0 .1 0 .1 0 0 0 .1 0 .1 0 0l-.1.1v-.1s0-.1.1 0c0-.1 0 0 0 0z" class="st3"/><path d="M7.2 7.6s-.1 0 0 0c-.1.1 0 .1 0 .1v-.1zm0 .1c0-.1 0-.1 0 0 0-.1 0-.1 0 0z"/><path d="M7.2 8.9V9c0 .1-.1.1-.1.1-.1 0-.2 0-.2-.1v-.1s0-.1-.1-.1v.1l.1.1c0 .1-.1.1-.1.1h-.1c-.1 0-.1-.1-.1-.1h.2l.1-.1h-.2v-.1c-.3.1-.3.1-.4.1v-.2c0-.1-.1-.1-.1-.1h-.1l.1-.2-.1-.1c.1-.1.2-.1.3-.1 0 0 .2-.1.4-.1H7s0 .1.1.1c0 0 0 .1.1.1v.1h-.1s0 .1.1.1H7v.1l-.1.1s.1.1.2 0v.1c0 .2 0 .1.1.1z" class="st3"/><path d="M7.1 9.4s0 .1 0 0c-.1.1 0 .1 0 .1.1.1.1 0 0-.1.1.1.1 0 0 0zm0 .1c.1 0 .1 0 0 0 .1 0 .1 0 0 0z"/><path d="M7.1 9.5c.1 0 .1 0 0 0 .1 0 .1 0 0 0z" class="st4"/><path d="M7.1 8.8c0 .1 0 .1 0 0 0 .1 0 .2-.1.2h-.2l.1-.1v-.1H7c0-.1 0-.1.1 0z" class="st2"/><path d="M7.1 7.7s-.1 0 0 0c-.1.1 0 .1 0 .1v-.1zm0 .1s-.1 0 0 0c-.1-.1 0-.1 0 0 0-.1 0-.1 0 0 0-.1 0 0 0 0z"/><path d="M7.1 8c0-.1 0-.1 0 0v-.1s0-.1.1-.1l-.1.1V8c-.1-.1-.1-.1 0 0-.1 0-.1 0 0 0-.1 0-.1.1 0 0-.1.1-.1.1 0 0-.1.1-.1.1-.1.2v.1s.1 0 .1.1c0 0 .1 0 .1.1v-.1c-.1-.1-.2-.3-.1-.4z" class="st2"/><path d="M6.9 7.7c-.1.1 0 .1 0 .1.1 0 .1 0 0-.1.1 0 .1 0 0 0zm0 .1c0-.1 0-.1 0 0 .1-.1.1-.1 0 0 .1-.1.1 0 0 0z"/><path d="M7 7.8s0 .1 0 0c0 .1 0 .1 0 0-.1.1-.3.1-.5.1-.1 0-.1 0-.2.1l-.1.1c-.1.2-.1.3 0 .4l.1.1-.2.2.1-.1c-.1-.3-.2-.4-.1-.5 0-.1 0-.1.1-.2.1 0 .2-.1.3-.1h.2c.1-.1.2-.1.3-.1z" class="st2"/><path d="m7 9.5-.1.1h-.1v-.1zM6.9 9.3h-.1.1z" class="st3"/><path d="M6.8 9.1s0-.1 0 0c0-.1 0-.1 0 0 0-.1 0-.1 0 0z" class="st4"/><path d="M6.8 7.7s-.1 0 0 0c-.1.1 0 .1 0 .1v-.1zm0 .1c0-.1 0-.1 0 0 0-.1 0-.1 0 0z"/><path d="M6.7 8.9s0 .1-.1.1h-.2s0-.1.2-.1h.1z" class="st2"/><path d="M6.6 7.7c-.1.1 0 .1 0 .1.1 0 .1 0 0-.1.1 0 .1 0 0 0zm0 .1c0-.1 0-.1 0 0 .1-.1.1-.1 0 0 .1 0 .1 0 0 0z"/><path d="M10.4 8.7s.1-.1.1-.2v-.2c0-.1-.1-.2-.1-.2-.1-.1-.2-.2-.4-.2h-.4l-.1-.1c-.3-.1-.4-.2-.5-.2h-.3c-.1 0-.2 0-.3.1v-.1s.1 0 .1-.1 0-.1-.1-.1-.1 0-.1.1h-.1s.1 0 .1-.1v-.1c0-.1-.1-.1-.1-.2h.1v-.2h-.1V7h-.1v.1h.1v.1c-.1 0-.1.1-.1.2v.1l.1.1h-.1s0-.1-.1-.1 0 .1 0 .1 0 .1.1.1c-.1-.1-.3-.1-.4-.1h-.2c-.1 0-.2.1-.3.1l-.1.1h-.4c-.3.1-.4.1-.5.2-.1.1-.2.2-.2.3v.2c0 .1.1.2.1.2l.1.1c-.2 0-.2.1-.2.1h.2s.1 0 .1.1v.1h.1s0 .1.1.1c0 .1.1.1.2.1l.1.1.1.1v.1H7V9.9h.1c.1 0 .2 0 .3.1h2c.1 0 .2 0 .3-.1h.1V9.6h.1v-.1l.1-.1s.1 0 .1-.1c.1 0 .2 0 .2-.1l.1-.1h.1V9l.1-.1h.2c-.3 0-.3-.1-.4-.2 0 .1 0 .1 0 0zm-.9-.9c0 .1 0 .1 0 0 0 .1-.1.1 0 0-.1 0-.1 0 0 0zm.9 1h-.1s-.1 0-.1.1V9s-.1-.1-.2-.1V9h-.2s0 .1.1.1h.2l-.1.1h-.1s-.1 0-.1-.1v-.2s-.1 0-.1.1v.1s-.1.1-.2.1-.1-.1-.1-.1V9h.1v-.1h.2l-.1-.1v-.1h-.2s0-.1.1-.1v-.1s.1 0 .1-.1c0 0 .1 0 .1-.1h.2c.2 0 .3.1.4.1.1 0 .2.1.3.1l-.1.1-.1.2zm-.5.2c-.1 0-.1 0 0 0l-.1-.1h.2c.1 0 .1.1.1.1-.1.1-.2.1-.2 0-.1.1 0 .1 0 0zm-.2.1c-.1 0-.1 0 0 0V9v.1zm-.9-.2c0-.1 0-.1 0 0-.1-.1-.1 0-.1 0h.1c-.2.2-.2.2-.3.2h-.1c0-.1-.1-.1-.1-.3.1.1.2.1.2.1v-.1c.1 0 .1 0 .2-.1h-.1v-.1c-.1 0-.2 0-.2.1v-.2h-.1l.1-.1.1-.1v-.2h.3c.1 0 .2 0 .3.1.1 0 .2.1.2.1h-.1l.1.1v.1h-.1v.2L9 8.6v.1h-.1s0 .1.1.1v.1h.2V9s-.1.1-.2.1-.2 0-.2-.2zm-.1 0v-.1s.1 0 0 .1c.1 0 0 0 0 0zm-.9 0s0-.1 0 0c0-.1-.1-.1 0 0h-.1.1c-.1.2-.2.2-.2.2-.1 0-.2 0-.2-.1v-.1h.2v-.1c.1 0 .1-.1.1-.1h-.1l-.1.1h-.1v-.2h-.1v-.1l.1-.1h-.1c.1 0 .2 0 .2-.1.1 0 .2-.1.3-.1h.3v.2l.1.1.1.1h-.1v.2c-.1-.2-.2-.2-.3-.2 0 0-.1 0-.2.1l.1.2c.1-.1.1 0 .2 0V9s.2 0 .2-.1c0 .1-.1.1-.1.2H8c-.1 0-.1 0-.2-.2zm0 0c0 .1 0 .1 0 0-.1 0-.1 0 0 0-.1 0-.1 0 0 0v-.1.1zm-.9.1c-.1 0-.1 0 0 0-.1 0-.1 0 0 0h-.1c0 .1 0 .1.1 0-.1.3-.2.3-.2.3h-.1c-.1 0-.1-.1-.1-.1h.2l.1-.1h-.2V9c-.2-.1-.2-.1-.3 0v-.2l-.1-.1h-.1l.1-.2-.1-.1c.1-.1.2-.1.3-.1.1 0 .2-.1.4-.1H7s0 .1.1.1c0 0 0 .1.1.1v.1h-.1s0 .1.1.1H7v.1l-.1.1V9H7c.1 0 .1 0 .2-.1V9c0 .1-.1.1-.1.1-.1.1-.2 0-.2-.1 0 .1 0 .1 0 0zm-.1.1s0-.1 0 0V9v.1zm-.3-.2h.2s0 .1-.1.1h-.2s0-.1.1-.1zM7 8c-.1 0-.1 0 0 0-.1 0-.1.1 0 .1v.1s0 .1.1.1h-.2c-.2 0-.3.1-.4.1-.1 0-.2.1-.3.1-.1-.1-.1-.2 0-.4.1-.1.1-.1.2-.1.2-.1.5-.1.6 0 0-.1 0-.1 0 0zm0 0s-.1 0 0 0c-.1 0 0 0 0 0zm0 .1c0 .1 0 .1 0 0 0 .1-.1.1 0 0-.1 0 0 0 0 0zm0 .1s.1.1 0 0c.1.1 0 .1 0 0 0 .1 0 .1 0 0zm.1.2zm.4.3h.1s0 .1-.1.1v.1h-.2v-.1c0-.1 0 0 0 0v-.1h.2c-.1 0-.1 0 0 0-.1 0 0 0 0 0s0-.1 0 0zm-.3.2c-.1 0-.1.1-.2.1h-.1l.1-.1H7.3c-.2-.1-.2-.1-.1 0-.1 0-.1 0 0 0zm-.1-.1L7 8.7h.1v-.1l.1.1h.1v.2h-.1c0-.2 0-.2-.1-.1zm.1.1c-.1-.1-.1-.1 0-.1h.1V9l-.1-.1c.1 0 .1 0 0 0zm0-.6c0-.1 0-.1 0 0-.1-.2-.1-.3 0-.4.1-.2.3-.2.6-.2.1 0 .3 0 .3.1v.1L8 8h-.3c-.1 0-.2 0-.3.1 0 .1-.1.1-.2.2zm1 0v-.5c0-.1.1-.1.1-.1s.1 0 .1.1v.5l-.1.1v-.2s0-.1-.1-.1c0 0-.1 0-.1.1.1 0 .1 0 .1.1zm0-.1c-.1-.1 0-.1 0-.1s.1 0 0 .1c.1 0 .1 0 0 0zm0 .1c.1 0 .1 0 0 0 .1 0 .1.1 0 0 .1 0 0 0 0 0s0 .1-.1.1c.1 0 .1-.1.1-.1zm0 .1c0-.1 0-.1 0 0 0-.1.1-.1 0 0h.1v.1h.1v.2h-.2v-.2h.1l-.1-.1c0 .1 0 .1 0 0zm.3.3s.1 0 .2.1c-.1 0-.1 0-.2.1 0 0-.2 0-.2-.1v-.1c.1 0 .2-.1.2 0zm-.3.1c-.1.1-.2.1-.3.1v-.1c-.1 0-.1 0-.2-.1.1-.1.2-.1.2-.1v-.1c.1 0 .2 0 .2.1s0 .1.1.2c-.1 0-.1 0 0 0zm0 0v-.1h.1v.1h-.1zm.2-.7v-.2c.1-.1.2-.1.3-.1.2 0 .5.1.6.2V8.3c-.1 0-.2 0-.2-.1-.1 0-.2-.1-.3-.1h-.4zm1 .5c.1 0 0 .1 0 .1h-.2V8.4h.1s0-.1.1-.1c-.1.2 0 .2 0 .3zm.1.2.1.1h-.1V9c-.1 0-.2-.1-.2-.1v-.1h.2c-.1 0 0 0 0 0 0-.1 0-.1 0 0zm-.3.1H9v-.1c-.1 0-.1-.1-.1-.1H9v-.1s.1 0 .1.1l.1.2c-.1-.1-.1-.1 0 0-.1 0-.1 0 0 0zm0-.1s0-.1 0 0c.1-.1.1-.1.2 0v.1c-.1 0-.2 0-.2-.1 0 .1 0 .1 0 0 0 .1 0 .1 0 0zm.1-.4s.1 0 0 0c.1 0 .1 0 0 0 .1 0 .1 0 0 0 .1 0 0 0 0 0zm.1-.1s0-.1 0 0c.1-.1.1 0 0 0 .1 0 .1 0 0 0zm.7 0c-.1 0-.2-.1-.4-.1h-.2s.1 0 .1-.1v-.2s0-.1-.1-.1c.1 0 .6 0 .8.2.1.1.1.2.1.3v.1c-.2 0-.3 0-.3-.1zm-.6-.1c0-.1 0-.1 0 0 0-.1 0-.1 0 0zm0-.2zm-.1-.2zm0 .1c0 .1.1.1.1.1h.1s-.1 0-.1.1c0 0-.1 0-.1.1 0 0-.1 0-.1.1v-.1c.1.1.1-.1.1-.2v-.1c0-.1 0-.1 0 0 0-.1 0-.1 0 0zm-.6-.3h.3c.1 0 .2.1.2.1l.1.1v.1c.1.2 0 .3-.1.5v.1l-.1-.2h.1s0-.1.1-.1v-.3c-.2-.2-.4-.2-.6-.3-.2.1-.3.1-.4.2.1-.2.3-.2.4-.2zm-.4-.1s0 .1 0 0c0 .1 0 .1 0 0 0 .1 0 .1 0 0 0 .1 0 0 0 0zm0-.2h-.1v-.1c.1 0 .1.1.1.1zm-.2-.1v.1h-.1s0-.1.1-.1zm-.1.2h.1v-.3h-.1V7h.1v-.1h.1V7h.1v.1h-.1v.3h.1-.3zm0 .1h.3c0 .1-.1.1-.2.1 0-.1-.1-.1-.1-.1zm0 .1c-.1 0-.1 0 0 0-.1 0-.1-.1 0 0 0-.1 0 0 0 0zm0 .2c0-.1 0-.1 0 0 0-.2.2-.2.2-.2s.1 0 .2.1v.1c0 .1 0 .2.1.4l-.1.1-.1.1.1-.1v-.5c0-.1-.1-.1-.1-.1-.2-.1-.2-.1-.3.1 0-.1 0-.1 0 0v.6L8 8.3c0-.1 0-.2.1-.4v-.1zm-.9-.1c.1-.1.2-.1.3-.1h.2c.1 0 .2 0 .3.1h-.3c-.2 0-.5.1-.6.2v.3s0 .1.1.1h.1l-.1.2v-.1c-.1-.1-.1-.2-.1-.3v-.2c0-.1.1-.1.1-.2zm-.1.1zm0 .1c0-.1 0-.1 0 0 0-.1 0-.1 0 0V8c0 .1 0 .2.1.3v.1s0-.1-.1-.1c0 0 0-.1-.1-.1 0 0 0-.1-.1-.1C7 8.1 7 8 7 8l.1-.1c-.1 0-.1 0 0 0zM7 7.8s.1 0 0 0c.1.1 0 .1 0 0 0 .1 0 .1 0 0zm-1 .7v-.2c0-.1 0-.1.1-.1v.1c0 .1 0 .2.1.3 0 .1-.1.1-.1.1-.1 0-.1-.1-.1-.2zm.1.2.1-.1c-.1-.2-.2-.3-.2-.4 0-.1 0-.1.1-.2.1 0 .3-.1.4-.1h.4-.4c-.1 0-.1 0-.2.1 0 0-.1 0-.1.1-.1.2-.1.3 0 .4l.1.1-.2.1zm.1.2H6s0-.1.1-.1h.1l.1.1V9l-.1-.1c0 .1 0 .1 0 0zm.2.3s-.1-.1 0 0c-.1-.1-.1-.1-.1-.2l.1.2c0-.1 0-.1 0 0 0-.1 0-.1 0 0 0-.1 0 0 0 0zm.4.4H7h-.2zm2.7.2c-.1 0-.2 0-.3.1h-2c-.1 0-.2-.1-.2-.1h.1c.2.1.7.1 1.3.1.3 0 .6 0 .9-.1h.2s.1 0 0 0c.1 0 0 0 0 0zM7 9.8c.2-.1.7-.1 1.2-.1h.9c.1 0 .3 0 .3.1-.1 0-.2.1-.4.1s-.6.1-.9.1c-.4-.1-.9-.2-1.1-.2zm2.6-.1s0 .1 0 0h-.1c-.1 0-.2 0-.4-.1h-.9c-.5 0-1 0-1.3.1h-.1l.1-.1c.1 0 .2 0 .3-.1.3 0 .6-.1 1-.1s.7 0 1 .1l.4.2zm.1-.1h-.2.2zm0-.1h-.2.2c-.1.1-.1.2-.1.2-.1 0-.2-.1-.4-.1-.3 0-.6-.1-1-.1s-.7 0-1 .1c0 0-.2 0-.2.1h-.1v-.1l.1-.1h-.2l-.1-.1h.1c.3-.1.8-.1 1.4-.1.4 0 .8 0 1.1.1.1 0 .3 0 .4.1 0-.1 0-.1 0 0zm.1-.1h-.1c-.1 0-.2 0-.4-.1H8.2c-.6 0-1.2 0-1.4.1h-.1l.1-.1h2.5c.3 0 .4 0 .5.1-.1-.1-.1-.1 0 0-.1-.1-.1-.1 0 0zm-3-.1h.1-.1zm.4-.1c.1 0 .1-.1.1-.1l.1.1h-.2zm.4 0c.1 0 .1-.1.1-.1s.1 0 .1.1h-.2zm.5 0c.1 0 .1-.1.2-.1 0 0 .1.1.2.1h-.4zm.5 0c.1 0 .1-.1.1-.1l.1.1h-.2zm.4 0c.1 0 .1 0 0 0 .1 0 .1-.1.1-.1l.1.1H9zm.5.1c.1 0 .1 0 0 0h.1-.1zm.5-.1c0 .1-.2.2-.3.1H9.4c-.1 0-.2-.1-.2-.1s-.1 0-.1.1H9c-.1 0-.2-.1-.2-.1s-.1 0-.1.1h-.1c-.2-.1-.3-.3-.3-.3l-.1.1s-.1.1-.2.1h-.1s-.1 0-.1-.1c0 0-.1.1-.2.1h-.1s-.1 0-.1-.1c0 0-.1.1-.2.1H6.9c-.1 0-.2 0-.3-.1L6.5 9l.1.1h.1s.1 0 .1-.1c0 0 .1.1.2.1h.1c.1 0 .1-.1.2-.2v-.1h.1v.1s.1.1.2.1h.1c.1 0 .1-.1.2-.2 0 .1.1.1.2.1h.1v-.1c.1.2.1.2.2.3h.1c.1 0 .1 0 .2-.1 0 .1.1.1.2.2H9c.1 0 .1 0 .2-.1s0-.1 0-.1h.1v.1c0 .1.1.1.1.1.1 0 .2-.1.2-.1 0 .1.1.1.1.1h.1c.2 0 .2 0 .2-.1.1 0 .1 0 0 .1.1-.1.1 0 0 0 .1 0 0 0 0 0zm.2-.1s-.1.1 0 0c-.1 0-.1 0 0 0-.1 0-.1 0 0 0-.1 0-.1 0 0 0 0-.1 0-.1 0 0zm.2-.3.1.1h-.2l-.1.1v-.2h.2zm0 0-.1-.2s.1-.1.1-.2 0-.2-.1-.3c-.1-.1-.2-.2-.4-.2h-.4.4c.2 0 .3.1.4.2v.1c.1.1 0 .3-.1.4.2.1.2.1.2.2zm0-.2c.1-.1.1-.3.1-.4 0 .1.1.1.1.2v.2c0 .1-.1.2-.1.2-.1-.1-.1-.1-.1-.2zM6.5 7.7c-.1 0-.1 0 0 0-.1.1 0 .1 0 .1v-.1zm0 .1s-.1 0 0 0c-.1 0 0-.1 0 0 0-.1 0 0 0 0z"/><path d="M6.4 9.1s0 .1 0 0c0 .1-.1.1 0 0-.1 0-.1 0-.1-.1l.1.1c-.1-.1-.1-.1 0 0z" class="st3"/><path d="M6.3 7.8c-.1.1 0 .1 0 .1s.1 0 0-.1c.1 0 .1 0 0 0zm0 .1s0-.1 0 0c0-.1 0-.1 0 0 0-.1.1-.1 0 0 .1-.1.1 0 0 0z"/><path d="M6.3 8.9V9l-.1-.1H6s0-.1.1-.1h.1l.1.1c-.1-.1-.1-.1 0 0 0-.1 0-.1 0 0z" class="st2"/><path d="M6.2 7.8s-.1.1 0 0c-.1.1 0 .1 0 .1s.1 0 0-.1c.1.1 0 0 0 0zm0 .1zM6.1 7.9s-.1.1 0 0c-.1.1 0 .1 0 .1v-.1c0 .1 0 0 0 0zm0 .1s-.1 0 0 0c0-.1 0 0 0 0z"/><path d="M6.1 8.6v.2C6 8.7 6 8.6 6 8.5v-.2c0-.1 0-.1.1-.1v.1c-.1 0-.1.2 0 .3z" class="st2"/><path d="M6 8.7s-.1 0 0 0c-.1.1 0 .1 0 .1v-.1zm0 .1c0-.1 0-.1 0 0 0-.1 0-.1 0 0zM6 8s-.1.1 0 0c-.1.1 0 .1 0 .1V8c0 .1 0 0 0 0zm0 .1s-.1 0 0 0c-.1 0 0 0 0 0z"/><path d="M6 8.7c0 .1 0 .1 0 0 0 .1 0 .1 0 0z" class="st4"/><path d="M5.9 8.6c-.1.1 0 .1 0 .1s.1 0 0-.1c.1 0 .1 0 0 0zm0 .1c0-.1 0-.1 0 0 0-.1.1-.1 0 0 .1 0 0 0 0 0z"/><path d="M5.9 8.6s.1 0 0 0c.1.1 0 .1 0 0 0 .1 0 .1 0 0z" class="st4"/><path d="M5.9 8.2c-.1.1 0 .1 0 .1s.1 0 0-.1c.1 0 0 0 0 0zm0 .1s0-.1 0 0c0-.1 0-.1 0 0 0-.1.1-.1 0 0 0-.1 0 0 0 0zM5.9 8.5c-.1 0-.1 0 0 0-.1.1 0 .1 0 .1v-.1zm0 0s-.1 0 0 0c-.1 0 0 0 0 0zM5.9 8.3c-.1 0-.1 0 0 0-.1.1 0 .1 0 .1v-.1zm0 .1s-.1 0 0 0c-.1-.1 0-.1 0 0 0-.1 0-.1 0 0z"/><path d="M5.9 8.5s0 .1 0 0c0 .1-.1 0 0 0-.1 0 0 0 0 0zM5.9 8.3c0 .1 0 .1 0 0 0 .1-.1.1 0 0-.1 0 0 0 0 0z" class="st4"/></g><g id="XMLID_5_"><path d="m8.3 14.5.1.1c0 .1 0 .1-.1.1l-.1-.1.1-.1z" class="st3"/><path d="M8.4 14.5s-.1 0 0 0c-.1 0-.1 0 0 0-.1-.1-.1-.1-.1 0h-.1s-.1 0-.1.2c0 .1.1.2.2.2s.2-.1.2-.2-.1-.2-.1-.2zm-.1.4s-.1-.1-.1-.2 0-.1.1-.2c.1.1.1.1.1.2-.1.1-.1.2-.1.2z" style="fill:#fed592"/><path d="M8.3 14.9v.2-.2c-.1 0 0 0 0 0z" class="st12"/><path d="M8.2 12.7zM6 9.9v3.9c0 .3.1.5.2.7l.2.2h.1s.1 0 .1.1c.4.2 1 .3 1.5.3s1.1-.1 1.5-.3c0 0 .1 0 .1-.1.2-.1.3-.2.4-.4.1-.2.2-.4.2-.6V9.9H6zm2.2 3.9c0 .2-.1.5-.2.7v-2.1h.2v1.4zm-.5-1.4v2.3c-.1 0-.1.1-.2.1v-2.4h.2zm.1 0H8v2.1l-.2.2v-2.3zm-1.5 2.1c-.2-.2-.3-.5-.3-.7v-1.4h.2v2.1zm.2.2c-.1-.1-.2-.1-.2-.2v-2.1h.2v2.3zm.3.1c-.1 0-.1-.1-.2-.1h-.1v-2.3h.2l.1 2.4zM6 12.4V9.9h2.2v2.4H6zm1.5 0v2.4c-.1 0-.1 0-.2.1v-2.5h.2zm-.3 0v2.5H7v-2.5h.2zm-.4 0H7v2.5c-.1 0-.2 0-.2-.1v-2.4zm1.4 2.7c-.5 0-.9-.1-1.3-.2H7.2c.1 0 .2 0 .2-.1.1 0 .2-.1.2-.1.1-.1.2-.1.2-.2.1-.2.2-.3.2-.5.1.5.5 1 1.1 1h.2c-.1 0-.6.1-1.1.1zm2.2-1.3c0 .4-.2.8-.5.9 0 0-.1 0-.1.1-.1.1-.3.1-.4.1-.6 0-1.1-.5-1.1-1.1v-1.4h2.2l-.1 1.4zm0-1.4H8.3V9.9h2.2v2.5zm-2.2.3z"/><path d="M10.4 12.4v1.4c0 .4-.2.8-.6.9 0 0-.1 0-.1.1-.1.1-.3.1-.4.1-.6 0-1.1-.5-1.1-1.1v-1.4h2.2z" class="st3"/><path d="M10.4 9.9v2.5H8.3V9.9zM9.3 14.9c-.6 0-1-.4-1.1-1 0 .2-.1.4-.2.5l-.2.2c-.1.1-.2.1-.2.1-.1 0-.2 0-.2.1H7.1c.4.2.9.2 1.3.2.5 0 .9-.1 1.3-.2-.2.1-.3.1-.4.1zm-.5 0c-.1.1-.1.1-.3.1h-.2v.1h-.1V15h-.1c-.1 0-.2 0-.4-.2 0 0 .3 0 .5.1v-.1c-.1 0-.2-.1-.2-.2s.1-.2.1-.2h.1v-.1.1h.1c.1 0 .1.1.1.2s-.1.2-.2.2v.1s.1-.1.2-.1c.2 0 .3.1.4.1z" class="st6"/><path d="M8.8 14.9h-.3c-.1 0-.2.1-.2.1v-.1c.1 0 .2-.1.2-.2s-.1-.2-.1-.2h-.1v-.1.1h-.1c-.1 0-.1.1-.1.2s.1.2.2.2v.1c-.2-.2-.5-.1-.5-.1.1.1.2.1.3.1h.1v.1h.1V15h.2c.2 0 .2 0 .3-.1zm-.6.1c-.1 0-.2.1-.5-.1.1 0 .3-.1.5.1zm0-.1c-.1 0-.2-.1-.2-.2s.1-.2.1-.2h.1v-.1.1s.1 0 .1.2c.2.1.1.2-.1.2zm.1.2v-.2.2zm.5-.2c-.1 0-.2.1-.5.1 0 0 .1-.1.2-.1h.3z"/><path d="M8.8 14.9c-.1 0-.2.1-.5.1 0 0 .1-.1.2-.1h.3z" class="st12"/><path d="M8.3 14.5c-.1.1-.1.1-.1.2s.1.2.1.2.1-.1.1-.2c-.1-.1-.1-.1-.1-.2zm0 .3-.1-.1c0-.1 0-.1.1-.2 0 0 .1.1.1.2l-.1.1z"/><path d="M8.2 12.4v1.4c0 .2-.1.5-.2.7v-2.1h.2z" class="st13"/><path d="M8.2 12.1v.3H6V9.9h2.2z" class="st3"/><path d="M8.2 15c-.1 0-.2.1-.5-.1.1 0 .3-.1.5.1z" class="st12"/><path d="M8 12.4v2.1l-.2.2v-2.3H8z" class="st3"/><path d="M7.7 12.4v2.3c-.1 0-.1.1-.2.1v-2.4h.2z" class="st13"/><path d="M7.5 12.4v2.4c-.1 0-.1 0-.2.1v-2.5h.2z" class="st3"/><path d="M7.2 12.4v2.5H7v-2.5h.2z" class="st13"/><path d="M7 12.4v2.5c-.1 0-.2 0-.2-.1v-2.4H7z" class="st3"/><path d="M6.8 12.4v2.4s-.1 0-.1-.1h-.1v-2.3h.2z" class="st13"/><path d="M6.5 12.4v2.3c-.1-.1-.2-.1-.2-.2v-2.1h.2z" class="st3"/><path d="M6.3 12.4v2.1c-.2-.2-.3-.5-.3-.7v-1.4h.3z" class="st13"/></g><path d="M9.1 13.2 9 13h-.1l-.1-.2v.1l.1.1v.1l.1.2.1-.1.1.3.1-.1-.2-.2zm-.1 0v-.1.1zm1.1.6v-.1l.1-.1c0-.1 0-.1-.1-.1v-.2h.1V13h-.1v-.2l.1-.1c0-.1-.1-.1-.1-.1-.1 0-.1 0-.1.1h-.2v-.1h-.2v.1h-.1l-.1-.1s-.1 0-.1.1h-.2v-.1h-.2v.1H8.6c-.1 0-.1.1-.1.1s0 .1.1.1v.1h-.1v.2h.1v.2l-.1.1s0 .1.1.1v.1h-.1v.2h.1v.2c0 .1.1.1.1.1l.1.1v.1l.2.2.1-.1h.1l.1.1c.1 0 .1 0 .1-.1h.1l.1.1.2-.1v-.1l.1-.1c.1 0 .1-.1.1-.1V14h.1v-.2zm0-.7.1.1h-.1v-.1zm-.1-.3v.4h.1v.2s-.1 0-.1.1h-.2v-.1h-.2v.1h-.2l.2-.2h.1l.1-.2V13l.2-.2zm-.3.7-.1.1v-.1h.1zm-.1-.3h.1-.1zm0-.5h.1v.1l-.1-.1zm-.2.5.1-.2h-.1v-.1s.1 0 .1-.1h.1v.1h.2v-.1h.2l-.3.2h-.1l-.1.2v.1l-.2.2.1-.3zm-.1-.2.1.1h-.1V13zm-.4-.3H9v.1l-.1-.1zm-.2.1h.1v.1H9v-.1h.1s0 .1.1.1v.1h-.1v.2h.1v.3l-.2-.2V13h-.1l-.1-.2h-.1zm.4.4H9h.1zm-.4-.3.1.2v.1l.2.1h.1l.2.2h-.2v-.1h-.2v.1h-.2s0-.1-.1-.1v-.2h.1v-.3l-.1.1v-.2l.1.1zm.3.6-.1.1v-.1H9zm-.4-.4.1.1h-.1v-.1zm0 .4c0 .1 0 .1 0 0 0 .1 0 .1 0 0zm0 .4v-.1h.1l-.1.1zm.1.2s0-.1-.1-.1h.1v-.2h-.1v-.1s.1 0 .1-.1h.1v.1H9v-.1h.1l-.2.2h-.1l-.1.2v.1zm.4-.2H9h.1zm-.1.6v-.1.1zm.3-.5-.1.2h.1v.2s-.1 0-.1.1h-.1v-.1l-.1-.1h-.1s-.1 0-.1-.1V14H9.1l.1-.2v-.1l.2-.2-.1.5zm.1.1-.1-.1h.1v.1zm.3.4zm.1-.1h-.2v.1h-.1l-.1-.1v-.2h.1V14h-.1v-.3l.2.2v.1l.1.2h.1l.1.2c0-.1 0-.1-.1 0 0-.1 0-.1 0 0zm-.2-.5h.1-.1zm.4-.1v.2h.1v.1l-.3-.1v-.1l-.1-.2h-.1l-.2-.2h.1v.1h.2v-.1h.3s0 .1.1.1l-.1.2zm.1.1-.1-.1h.1v.1zm0-.3s-.1 0 0 0c-.1-.1 0-.1 0 0 0-.1 0-.1 0 0zm-1-.4L9 13h-.1l-.1-.2v.1l.1.1v.1l.1.2.1-.1.1.3.1-.1-.2-.2zm-.1 0v-.1.1z" style="fill:#c6b011"/><path d="M9.5 13.5c0 .1-.1.1-.1.1-.1 0-.1-.1-.1-.1 0-.1.1-.1.1-.1l.1.1z" class="st12"/><path d="M7.8 11.8h-.2v-.7h.1v-.3h-.2v-.1h.1v-.2H7.3v.2h.1v.1h-.2v-.4h.1v-.2H7v.2h.1v.4h-.2v-.1H7v-.2H6.7v.2h.1v.1h-.2v.3h.1v.7h-.2v.3h1.2l.1-.3z" class="st13"/><path d="M6.9 10.8zm.4 1.1zm-.3 0zm.3 0zm-.1-.1zm-.1 0zm-.1.1zm.2-.1zm-.1 0zm.7 0h-.2v-.7h.1v-.3h-.2v-.1h.1v-.2H7.3v.2h.1v.1h-.2v-.4h.1v-.2H7v.2h.1v.4h-.2v-.1H7v-.2H6.7v.2h.1v.1h-.2v.3h.1v.7h-.2v.3h1.2l.1-.3zm-.1 0-.1.1v-.1h.1zm0 .1-.2.1v-.1h.2zm-.1 0h-.1v-.1l.1.1zm-.3.2h-.2V12l.2.1zm-.6-.2.1-.1v.1h-.1zm0 0-.1.1v-.1h.1zm.1-.9-.1.1V11h.1zm.8 0-.1.1V11h.1zm-.3.9h-.2v-.1l.2.1zm-.4 0 .1-.1v.1h-.1zm-.1-.4H7v.1l-.2-.1zm0-.2h.1v.1l-.1-.1zm0-.1H7v.1l-.2-.1zm0-.2H7v.1l-.2-.1zm0-.1h.1v.1l-.1-.1zm.3.1-.1.1V11h.1zm.2 0-.1.1V11h.1zm.1 0-.1.1V11h.1zm.1 0h-.1v-.1l.1.1zm-.1.3h-.1v-.1l.1.1zm.1 0-.1.1v-.1h.1zm-.1.3h-.1v-.1l.1.1zm-.1.2.1-.1v.1h-.1zm-.1.1h-.1v-.1l.1.1zm-.2-.2h.1v.1l-.1-.1zm.1-.4-.1.1v-.1h.1zm.3 0-.1.1v-.1h.1zm-.2.2.1-.1v.1h-.1zm0 .2h-.1v-.1l.1.1zm0-.4h-.1v-.1l.1.1zm.1.1-.1.1v-.1h.1zm-.2 0H7v-.1h.1zm0 0h.1v.1l-.1-.1zm0 .1-.1.1v-.1h.1zm0 .1.1-.1v.1h-.1zm.2-.3h-.2v-.1l.2.1zm-.1-.1h-.1v-.1l.1.1zm-.1 0-.1.1v-.1h.1zm0 .2-.1.1v-.1h.1zm0 .2-.1.1v-.1h.1zm0 .2.1-.1v.1h-.1zm.1-.1.1-.1v.1h-.1zm.2 0 .1-.1v.1h-.1zm0-.2.1-.1v.1h-.1zm0-.1h-.1v-.1l.1.1zm0-.2.1-.1v.1h-.1zm0-.1-.1.1v-.1h.1zm-.2-.1h-.1v-.1l.1.1zm-.1.1-.1.1v-.1h.1zm-.2 0-.1.1v-.1h.1zm-.1.3H7v.1l-.2-.1zm.1 0-.1.1v-.1h.1zm0 .2-.1.1v-.1h.1zm-.1.1H7v.1l-.2-.1zm.2.2h.1v.1l-.1-.1zm.1 0h.1v.1l-.1-.1zm.1 0 .1-.1v.1h-.1zm.2-.1h.1v.1l-.1-.1zm.1 0 .1-.1v.1h-.1zm0-.1zm0-.1.1-.1v.1h-.1zm0-.1zm0-.1.1-.1v.1h-.1zm0-.1zm0 0 .1-.1v.1h-.1zm0-.1zm0-.3.1-.1v.1h-.1zm0-.1h-.1v-.1l.1.1zm-.1.1-.1.1v-.1h.1zm0 0-.2.1v-.1h.2zm-.1 0h-.2v-.1l.2.1zm-.1-.1h-.1v-.1l.1.1zm-.1.1H7v-.1h.1zm0 0-.2.1v-.1h.2zm-.1 0h-.2v-.1l.2.1zm-.1-.1h-.1v-.1l.1.1zm-.1.1-.1.1v-.1h.1zm-.1.2zm.1.1-.1.1v-.1h.1zm-.1.1zm.1.1-.1.1v-.1h.1zm-.1 0zm.1.1-.1.1v-.1h.1zm-.1.1zm.1.1-.1.1v-.1h.1zm0 .1h.1v.1l-.1-.1zm0 .1h.1v.1l-.1-.1zm0 0H7v.1h-.2zm.1 0H7v.1l-.1-.1zm.1.1h.1v.1L7 12zm.2 0 .1-.1v.1h-.1zm.1-.1.1-.1v.1h-.1zm.1 0h.1v.1l-.1-.1zm.3-.8zm0-.1h-.2v-.1l.2.1zm0-.1zm0-.1-.1.1v-.1h.1zm-.2 0zm-.1-.1h.1-.1zm-.1-.2c.1 0 .1 0 0 0H7.6v.1l-.3-.1zm0 .1h.3-.3zm.1.1zm0 .1-.1.1v-.1h.1zm-.3-.2.1-.1v.1h-.1zm0 0zm0-.2h.1-.1zm.1 0zm-.1 0zm0 .2zm-.1-.4H7.3v.1l-.3-.1zm0 .2.3-.1v.1H7zm.1.3h.1v.1l-.1-.1zm0 .1-.1.1v-.1h.1zm-.3 0zm0-.1h.1-.1zm-.1-.2H7v.1l-.3-.1zm0 .1H7h-.3zm.1.1zm-.2.1h.1v.1l-.1-.1zm0 .1zm0 0h.1v.1l-.1-.1zm0 .2zm0 .7h.1v.1l-.1-.1zm-.1 0zm0 .1h.1v.1l-.1-.1zm0 0zm.2.2h-.2V12l.2.1zm.1 0h-.1V12l.1.1zm0-.1H7v.1l-.2-.1zm.6.1h-.1V12l.1.1zm.1 0 .1-.1v.1h-.1zm.2 0h-.1V12l.1.1zm0-.1zm0-.1h-.1v-.1l.1.1zm0 0zm-.4 0zm-.3 0zm0 0zm.1-.1zm0 0zm.1 0zm.1.1zm-.2-.1zm.1 0zm-.1 0zm-.2-1z"/><path d="M7 11.5h-.2v-.2c0-.1 0-.1.1-.1s.1 0 .1.1v.2z" class="st13"/><path d="m7 11.3-.1-.1v.2H7v-.1zm0 .2h-.2V11.2h.1V11.5z"/><path d="M6.8 11.5v-.2c0-.1 0-.1.1-.1s.1 0 .1.1v.2h-.2z" class="st15"/><path d="M7.5 11.5h-.2v-.2c0-.1 0-.1.1-.1s.1 0 .1.1v.2z" class="st13"/><path d="M7.5 11.3c0-.1 0-.1 0 0 0-.1-.1-.1 0 0l-.1-.1s-.1 0-.1.1V11.6h.2v-.3zm0 .2h-.2V11.2h.1v.1l.1.2z"/><path d="M7.3 11.5v-.2c0-.1 0-.1.1-.1s.1 0 .1.1v.2h-.2zM7 12.1V11.8h.4V12.1H7z" class="st15"/><g id="XMLID_4_"><path d="M7.5 10.8v.2h-.1v-.2zM7.2 10.8v.2h-.1l-.1-.2zM6.9 11h-.2zM6.9 10.8v.2h-.2v-.2z" class="st13"/><path d="M7.5 10.8h-.2V11.1h.2V10.8zm0 .2h-.1.1zm0-.2v.1h-.1V10.6l.1.2zM7.2 10.8H7v.2h.2v-.2zm0 .2h-.1.1zm0-.2v.1h-.1V10.6l.1.2zM6.9 10.8h-.2V11.1h.2V10.8zm0 .2h-.2.2zm0-.2v.1h-.2V10.6l.2.2z"/></g><g id="XMLID_3_"><path d="M7.3 12.1v-.2.2zM7.4 11.9h-.1.1c-.1-.1 0 0 0 0zM7.3 11.8c-.1 0 0 0 0 0zM7.2 11.7c0 .1 0 .1 0 0l-.1.1v-.1h.1zM7.1 11.8c-.1 0-.1 0 0 0zM6.9 11.8c.1.1.1.1 0 0v.1-.1c0 .1 0 0 0 0zM6.9 11.9v.2-.2z" class="st13"/><path d="M7.1 11.8zm.3.1c0-.1 0-.1 0 0 0-.1 0-.1 0 0-.1-.1-.1-.1 0 0-.1-.1-.1-.1 0 0-.1-.1-.1-.1-.2-.1h-.1c-.1 0 0 0 0 0H7v.2-.2h.1v.2h.1l.2-.1c-.1 0-.1 0 0 0zm-.2-.1zm-.1-.1c.1 0 .1 0 0 0h.1-.1c.1.1.1.1 0 0 0 .1 0 .1 0 0zm-.1.1zm-.1.1c0-.1 0-.1 0 0H7h-.1c.1 0 .1 0 0 0 .1 0 .1 0 0 0 .1 0 .1 0 0 0zm.1.2v-.2.2zm.3 0-.1-.2.1.2zm0-.2c0-.1 0-.1 0 0z"/></g><path d="M8.9 12.4c0 .5-.3.8-.7.8s-.7-.4-.7-.8.3-.8.7-.8.7.3.7.8z" class="st3"/><path d="M8.8 12.9zm-.5-1.3c-.1 0-.1 0 0 0-.1 0-.1 0 0 0-.2 0-.4.1-.5.2V12.4c0 .2.1.4.2.6l.2.2h.2c.1 0 .2 0 .2-.1h.2l.1-.1.1-.1.1-.1s0-.1.1-.1c0-.1 0-.1.1-.2v-.2c-.4-.4-.7-.7-1-.7zm.6.8v.2c0 .1 0 .1-.1.2 0 0 0 .1-.1.1v.1l-.1.1-.1.1h-.1c-.1 0-.2.1-.2.1H8c-.1 0-.2-.1-.2-.2-.1-.1-.2-.3-.2-.5v-.5c.1-.1.3-.2.5-.2.5-.3.8 0 .8.5zm-.1.5z"/><path d="M8.7 12.4c0 .3-.2.6-.5.6s-.5-.3-.5-.6.2-.6.5-.6.5.3.5.6z" class="st7"/><path d="M8.3 11.8c-.1 0-.1 0 0 0-.3 0-.5.3-.5.6v.2c0 .1.1.2.2.3.1.1.1.1.2.1s.2-.1.3-.1c.1-.1.1-.1.1-.2s0-.2.1-.2c0-.4-.2-.7-.4-.7zm.4.6v.2c0 .1-.1.1-.1.2-.1.1-.2.2-.3.2-.1 0-.2 0-.2-.1-.1-.1-.2-.2-.2-.4v-.1c0-.3.2-.6.5-.6.1 0 .3.3.3.6z"/><g id="XMLID_2_"><path d="M8.3 12.8h-.1v-.1l.1.1z" class="st13"/><path d="M8.3 12.7v.1h-.2v-.1h.2zM8.4 12.6s0 .1 0 0c0 .1-.1.1 0 0l-.1.1h-.2v-.1h.1c-.1-.1 0-.2 0-.2s.1.1 0 .2h.2zM8.1 12.3v.1h-.2v-.1H8z" class="st13"/><path d="M8.1 12.4H8v-.1l.1.1zM8.5 12.4h-.1v-.1l.1.1z" class="st13"/><path d="M8.6 12.3v.1h-.2v-.1h.1zM8.6 12.2s0 .1 0 0c0 .1-.1.1-.1.1h-.2v-.1h.1c-.1-.1 0-.2 0-.2s.1.1 0 .2h.2zM8.2 12.2s-.1.1 0 0c0 .1-.1.1-.1.1h-.2v-.1H8c-.1-.1 0-.2 0-.2s.1.1 0 .2h.2c-.1 0 0 0 0 0z" class="st13"/><path d="M8.6 12.2h-.1c.1-.2 0-.2 0-.2s-.1.1 0 .2h-.1v.1h.2s.1 0 0-.1zm-.1.2h-.1.1zm.1-.1h-.2.2zm0 0c-.1 0-.1 0 0 0H8.3v-.1h.1c-.1-.1 0-.2 0-.2.1 0 .2.1.2.3-.1-.1 0-.1 0-.1v.1zM8.4 12.6h-.1v-.2.2h-.1v.1h.1v.1-.1l.1-.1c-.1.1 0 .1 0 .1v-.1zm-.1.2h-.1v-.1l.1.1zm0-.1h-.2.2zm.1 0s-.1 0 0 0c-.1 0-.1 0 0 0H8.1v-.1h.1v-.1c.1 0 .1 0 .2.2-.1-.1-.1-.1 0 0-.1-.1-.1-.1 0 0-.1-.1 0-.1 0-.1v.1c0-.1 0 0 0 0zM8.2 12.2s-.1 0 0 0h-.1c0-.2-.1-.2-.1-.2s-.1.1 0 .2h-.1v.1h.2s.1 0 .1-.1zm-.1.2H8h.1zm0-.1h-.2.2zm0 0s-.1 0 0 0H7.8v-.1h.1c0-.1.1-.2.1-.2s.1.1.1.3c-.1-.1 0-.1 0-.1.1 0 0 .1 0 .1z"/></g><g id="XMLID_1_"><path d="M9.8 10.4zM9.8 10.4zM9.8 10.3zM9.8 10.4c-.1 0-.1 0 0 0zM9.7 10.3c0 .1 0 0 0 0zM9.7 10.3zM9.7 10.3zM9.7 10.3zM9.7 10.3zM9.6 10.3zM9.6 10.2zM9.6 10.2zM9.6 10.2zM9.5 10.2zM9.5 10.2zM9.5 10.1v.1-.1zM9.8 10.4c-.1 0-.1 0 0 0-.1 0-.1 0 0 0-.1 0-.1 0 0 0l-.1-.1s.1 0 .1.1l.1.1-.1-.1h-.1.1c-.1.1-.1.1 0 0zm-.3-.1zm0 0zm.1 0zm0 .1zm.1 0s-.1 0 0 0c-.1 0-.1 0 0 0-.1 0-.1 0 0 0-.1 0 0 0 0 0zm0 0z" class="st8"/><path d="M9.8 12.1c0 .1-.1 0 0 0zM9.7 12.1s-.1 0 0 0c-.1 0-.1 0 0 0-.1 0-.1 0 0 0zM9.6 12s-.1 0 0 0c-.1-.1 0-.1 0 0 0-.1 0-.1 0 0zM9.1 11.9c0 .1 0 0 0 0-.1 0-.1 0 0 0zM9 11.8s-.1 0 0 0c-.1 0-.1 0 0 0zM9.1 11.6s-.1 0 0 0c-.1 0-.1 0 0 0-.1.1-.1.1 0 0H9h.1c-.1 0-.1 0 0 0zM8.8 11.3s0 .1 0 0c-.1.1-.1 0 0 0-.1 0 0 0 0 0zM8.7 11.2c-.1 0-.1 0 0 0-.1 0-.1 0 0 0-.1 0-.1 0 0 0zM8.7 11.1s-.1 0 0 0c-.1 0-.1 0 0 0z" class="st16"/><path d="m10.2 10.3-.1.1v-.1V11.2c-.2.1-.2-.1-.3-.1v-.2.1-.2c.1 0 .1.1.1.1v-.1h.1v-.4h.2v.2s-.1 0-.1.1h-.2s-.1 0-.1-.1h-.1s.1 0 .1.1c0 0 .1.1.2.1h.1-.5V10.5l-.1-.1v.1h-.2.1s-.1 0-.1.1h.1-.2.2s-.4.3-.4.4c-.1 0-.1.1-.2.1h-.1c-.1 0-.1 0-.1.1h.1s0 .1.1.1v-.2h.1v.1s.1 0 .1-.1c0 0 0-.1.1-.1 0 .1.1.2.2.2h-.2c-.1 0-.1 0-.1.1v.4H8.7h.1-.1s-.1 0-.1.1h.1v.1h.1v-.1H9.1v-.2h.1v.1l.1.1v-.1.1-.1.1h-.1s-.1 0-.1.1h.1s-.1.1 0 .1v-.1s0 .1.1.1v-.4h-.1v-.2l.1-.1c.1 0 .1 0 .1-.1v-.1c0-.1 0-.2-.1-.2v-.2l.1-.1.1-.1h-.1c.8-.1.8-.2.8-.2zm-.4.1zm0-.1zm-.1.1c.1 0 .1 0 0 0zm0-.1c0 .1 0 0 0 0zm0 0zm0 0zm0 0zm-.2-.1zm-.8 1c-.1 0-.1 0 0 0-.1 0-.1 0 0 0-.1 0-.1 0 0 0zm.9.8s-.1 0 0 0c-.1-.1 0-.1 0 0 0-.1 0-.1 0 0zm.2-1.6zm-.1-.1zm-.1 0zm0-.1zm0 0zm0 0zm-.1 0zm0-.1zm0 .2c0-.1 0-.1 0 0 .1 0 .1 0 .1.1l-.1-.1c.1.1 0 .1 0 0zm-.3.3c-.1 0-.1 0-.2-.1l-.1-.1H9c.1 0 .1.1.2.2 0-.1 0-.1 0 0h.1-.1zm-.1.2h.2v-.1h.2l.1-.1c.1 0 .1 0 .1.1l.1.1v.5l-.1-.1v.1s0-.1-.1-.1V11.5v-.1s0 .1-.1.1v-.1c-.2-.4-.3-.4-.3-.4v-.2h-.1s-.1 0 0 0c-.1 0-.1 0 0 0zm-.3-.4c0 .1 0 0 0 0zm-.3.1c.1 0 .1 0 0 0 .1 0 .1 0 0 0 .1 0 .1 0 0 0 .1 0 .1 0 0 0zm0 .2s.1-.1 0 0c.1-.1.1 0 0 0 .1 0 .1 0 0 0zm.5.3-.1-.1h-.1.2v-.1.2H9.3v.1h.2v.1c-.4-.3-.5-.2-.5-.2zm-.3.1s-.1 0 0 0c-.1 0-.1 0 0 0zm.1.3c-.1 0-.1-.1 0 0-.1-.1 0-.1 0 0 0-.1 0-.1 0 0 0-.1 0 0 0 0zm.3-.2s-.1 0-.1.1v-.1h-.1v.1H9s.1-.1.2-.1l.1-.1v.1s.1 0 .2-.1v.1s0 .1-.1.1c-.3-.2-.3-.1-.3-.1zm-.1.4c.1 0 0 0 0 0 0 .1 0 0 0 0zm-.1.2zm.2.2s0-.1 0 0c-.1-.1-.1-.1 0 0 0-.1 0-.1 0 0 0-.1 0-.1 0 0zm.3-.4v.2h-.2.1v-.1l-.1.1v-.1.1-.1c0-.1.1-.1.1-.1h.2l.1.1v.2c-.1-.3-.2-.3-.2-.3zm.2.6c0-.1 0-.1 0 0 0-.1 0-.1 0 0 0-.1 0-.1 0 0zm.2 0s-.1-.1 0 0c0-.1 0-.1 0 0 0-.1 0 0 0 0zm.3-1.7c.1 0 0 .1 0 .1 0 .1-.1.1-.1.1v.2c0 .1.1.2.1.2v.1l-.1.1s-.1 0-.1.1v.2h.1v.1s-.1.2 0 .2h.1s0-.1-.1-.1v.1l-.1-.1v.1s-.1 0-.1-.1V11.5s0-.1-.1-.1h-.1c-.1-.1-.2-.1-.2-.2 0 0 .1 0 .1-.1l.1-.1v.2-.2c0 .1 0 .1.1.2s.1.2.3.1c0 0 .1-.1 0-.2v-.6c0-.1 0-.1.1 0-.1-.1-.1-.1-.1-.2 0 .1 0 .1.1.2-.1-.1-.1 0 0 0 0-.1 0-.1.1-.1 0 0-.1 0-.1.1z"/><path d="M10.2 10.3s0 .1-.1.2h.1l-.1.1c0 .1-.1.1-.1.1v.2c0 .1.1.2.1.2v.1l-.1.1s-.1 0-.1.1v.2h.1v.1s-.1.2 0 .2h.1v-.1s0-.1-.1-.1v.1l-.1-.1v.1s-.1 0-.1-.1V11.4s0-.1-.1-.1h-.1c-.1-.1-.2-.1-.2-.2 0 0 .1 0 .1-.1 0 0 .1 0 .1-.1v.2-.2c0 .1 0 .1.1.2s.1.2.3.1c0 0 .1-.1 0-.2V10.2v.1c.1.1.1.1.2 0-.1 0-.1 0 0 0z" class="st17"/><path d="M9.7 10.8V10.5l-.1-.1s-.1 0-.1-.1c0 0-.1 0-.1.1h-.1v.1h-.2v.1h.2v.2s.1 0 .1-.1v.1l.1-.1v.1V10.5l.2.3v.1-.1zm-.2-.4c-.1 0 0 0 0 0z" class="st17"/><path d="M9.7 10.4zM9.7 10.4s-.1 0 0 0c-.1 0-.1 0 0 0-.1 0 0 0 0 0zM9.6 10.4zM9.6 10.3zM9.5 10.3z"/><path d="M9.5 11.5v.1h-.1v.2h-.2.1v-.1l-.1.1v-.1.1-.1c0-.1.1-.1.1-.1 0-.2.1-.2.2-.1 0-.1 0-.1 0 0z" class="st17"/><path d="M9.5 10.3zM9.5 10.4c-.1 0 0 0 0 0z"/><path d="M9.4 10.5h-.1c-.1 0-.1 0-.2-.1l-.1-.1h.1c.1.2.1.2.3.2-.1 0-.1 0 0 0z" class="st16"/><path d="M9.3 11c0 .1 0 .1-.1.1s-.1.1-.1.1v-.1l-.1.1v-.1h-.1v.1H9s.1-.1.2-.1l.1-.1v.1c-.2-.1-.1-.1 0-.1z" class="st17"/><path d="M9.2 10.8s-.1.1 0 0L9 11l-.1-.1h-.1.2v.2H9.3v.1c-.3-.4-.3-.4-.1-.4-.1 0-.1 0 0 0z" class="st17"/><path d="M8.8 10.4c0 .1 0 0 0 0zM8.6 10.5zM8.6 10.6s0 .1 0 0c0 .1-.1.1 0 0-.1.1 0 0 0 0z" class="st16"/></g></svg>
