<svg xmlns="http://www.w3.org/2000/svg" xml:space="preserve" width="22" height="22" style="enable-background:new 0 0 22 22"><style>.st0{fill:#fff}.st1{fill:#ec1a23}</style><g id="Thailand_1_"><path d="M22 11c0 2.7-1 5.3-2.8 7.3-4.1 4.5-11 4.9-15.5.9-1.4-1.2-2.4-2.8-3-4.5-1.3-3.8-.5-8 2.2-11 4.1-4.5 11-4.9 15.5-.9 1.4 1.2 2.4 2.8 3 4.5.4 1.2.6 2.4.6 3.7z" class="st0"/><path d="M19.2 18.3c-4.1 4.5-11 4.9-15.5.9l-.9-.9h16.4z" class="st1"/><path d="M21.4 14.7c-.5 1.4-1.2 2.6-2.2 3.7H2.8c-1-1.1-1.7-2.3-2.2-3.7h20.8zM21.4 7.3H.6C1.1 6 1.8 4.7 2.8 3.7h16.4c1 1 1.7 2.3 2.2 3.6z" class="st0"/><path d="M22 11c0 1.2-.2 2.5-.6 3.7H.6c-.8-2.4-.8-5 0-7.3h20.7c.5 1.1.7 2.3.7 3.6z" style="fill:#231c4f"/><path d="M19.2 3.7H2.8c4.1-4.5 11-4.9 15.5-.9l.9.9z" class="st1"/></g></svg>
