<svg xmlns="http://www.w3.org/2000/svg" xml:space="preserve" width="22" height="22" style="enable-background:new 0 0 22 22"><style>.st1{fill:#fff}</style><path d="M22 11c0 2-.5 3.9-1.5 5.5-1.9 3.3-5.4 5.5-9.5 5.5s-7.6-2.2-9.5-5.5C.5 14.9 0 13 0 11s.5-3.9 1.5-5.5C3.4 2.2 6.9 0 11 0s7.6 2.2 9.5 5.5C21.5 7.1 22 9 22 11z" style="fill:#df1f26"/><path d="M9.6 14.8c.5 0 1-.1 1.4-.3-.9.9-2.1 1.4-3.4 1.4-1.8 0-3.4-1-4.2-2.4-.4-.8-.7-1.6-.7-2.5s.3-1.7.7-2.4c.8-1.5 2.4-2.4 4.2-2.4 1.3 0 2.5.5 3.4 1.4-.4-.2-.9-.3-1.4-.3C8.2 7.2 7 8 6.3 9.1c-.3.6-.5 1.2-.5 1.9s.2 1.3.5 1.9c.7 1.1 1.9 1.9 3.3 1.9z" class="st1"/><path d="m12.8 9.7 1.3-.6-.3 1.4 1 .9-1.3.2-.7 1.3-.6-1.3-1.4-.2 1-.9-.2-1.4z" class="st1"/></svg>
