<svg width="28" height="28" viewBox="0 0 28 28" fill="none" xmlns="http://www.w3.org/2000/svg">
<path d="M28 24.5C28 26.4 26.4 28 24.5 28H3.5C1.6 28 0 26.4 0 24.5V3.5C0 1.6 1.6 0 3.5 0H24.5C26.4 0 28 1.6 28 3.5V24.5Z" fill="#25D366"/>
<path d="M21.1 6.7999C19.2 4.8999 16.7 3.8999 14 3.8999C8.49999 3.8999 3.99999 8.3999 3.99999 13.8999C3.99999 15.6999 4.49999 17.3999 5.29999 18.8999L3.89999 24.0999L9.19999 22.6999C10.7 23.4999 12.3 23.8999 14 23.8999C19.5 23.8999 24 19.3999 24 13.8999C24.1 11.1999 23 8.6999 21.1 6.7999ZM14 22.1999C12.5 22.1999 11 21.7999 9.79999 20.9999L9.49999 20.7999L6.29999 21.5999L7.09999 18.4999L6.99999 18.2999C6.19999 16.9999 5.69999 15.3999 5.69999 13.8999C5.69999 9.2999 9.39999 5.5999 14 5.5999C16.2 5.5999 18.3 6.4999 19.9 7.9999C21.5 9.5999 22.3 11.6999 22.3 13.8999C22.4 18.4999 18.6 22.1999 14 22.1999ZM18.6 15.9999C18.3 15.8999 17.1 15.2999 16.9 15.1999C16.7 15.0999 16.5 15.0999 16.3 15.2999C16.1 15.5999 15.7 16.0999 15.5 16.2999C15.3 16.4999 15.2 16.4999 15 16.3999C14.7 16.2999 13.9 15.9999 13 15.1999C12.3 14.4999 11.8 13.6999 11.6 13.4999C11.5 13.1999 11.6 13.0999 11.7 12.9999C11.8 12.8999 12 12.6999 12.1 12.5999C12.2 12.4999 12.3 12.2999 12.4 12.1999C12.5 11.9999 12.4 11.8999 12.4 11.7999C12.3 11.6999 11.8 10.3999 11.6 9.8999C11.4 9.3999 11.2 9.4999 11 9.4999C10.9 9.4999 10.7 9.4999 10.5 9.4999C10.3 9.4999 10.1 9.5999 9.79999 9.7999C9.59999 9.7999 8.99999 10.4999 8.99999 11.6999C8.99999 12.8999 9.89999 14.0999 9.99999 14.2999C10.1 14.4999 11.8 16.9999 14.3 18.0999C14.9 18.3999 15.4 18.4999 15.7 18.5999C16.3 18.7999 16.8 18.7999 17.3 18.6999C17.8 18.5999 18.8 18.0999 19 17.4999C19.2 16.8999 19.2 16.3999 19.1 16.2999C19 16.1999 18.9 16.0999 18.6 15.9999Z" fill="white"/>
</svg>
