<svg width="29" height="28" viewBox="0 0 29 28" fill="none" xmlns="http://www.w3.org/2000/svg">
<rect x="2" y="2" width="24" height="23" fill="white"/>
<path d="M14.3 12.4001L9.09999 5.1001H6.39999L12.8 14.1001L13.6 15.2001L19.1 22.9001H21.8L15.1 13.5001L14.3 12.4001Z" fill="black"/>
<path d="M24.1 0H4.10001C1.90001 0 0.100006 1.8 0.100006 4V24C0.100006 26.2 1.90001 28 4.10001 28H24.1C26.3 28 28.1 26.2 28.1 24V4C28.1 1.8 26.3 0 24.1 0ZM18.2 24.2L12.6 16.3L5.60001 24.2H3.90001L11.9 15.2L3.90001 3.9H10L15.3 11.4L21.9 3.9H23.7L16.1 12.5L24.3 24.2H18.2Z" fill="black"/>
</svg>
